<?xml version="1.0" encoding="UTF-8"?>
<svg version="1.1" xmlns="http://www.w3.org/2000/svg" width="1024" height="1024">
<path d="M0 0 C2.06658104 -0.00435801 4.13316046 -0.00954475 6.19973755 -0.01548767 C11.75662484 -0.02875744 17.31344366 -0.02947095 22.87034369 -0.02692437 C27.51848328 -0.02584855 32.16660935 -0.03075245 36.81474602 -0.03552979 C47.769737 -0.04657867 58.72469366 -0.04708552 69.6796875 -0.04101562 C80.98226759 -0.03494996 92.28472401 -0.04736282 103.58728302 -0.06858569 C113.30904396 -0.08616899 123.03076539 -0.09220909 132.75254166 -0.08894795 C138.55226465 -0.0871331 144.35189895 -0.08979347 150.15160751 -0.10366249 C155.59036882 -0.11618641 161.02893521 -0.11434865 166.46769333 -0.1012516 C168.46601933 -0.0988761 170.46435886 -0.10165508 172.46266937 -0.10987473 C175.1825265 -0.12025967 177.90171906 -0.11230919 180.62155151 -0.0995636 C181.4183161 -0.10693788 182.21508068 -0.11431217 183.03598964 -0.12190992 C188.33231271 -0.06940915 188.33231271 -0.06940915 190.83838081 1.62788105 C194.01182899 6.84366587 191.22173504 15.83124215 189.93017578 21.56762695 C185.02628212 41.33603889 176.04887156 58.77912773 162.84033203 74.2746582 C162.02822266 75.2337207 161.21611328 76.1927832 160.37939453 77.1809082 C153.64360239 84.93567581 146.17632868 91.29523203 137.84033203 97.2746582 C137.27975098 97.67813477 136.71916992 98.08161133 136.14160156 98.49731445 C106.77771146 119.27923259 75.17031401 121.23532274 40.34033203 121.7746582 C26.95385692 121.98461904 13.57434949 122.23378182 0.19580078 122.75512695 C-0.82553955 122.79404053 -1.84687988 122.8329541 -2.89916992 122.87304688 C-28.80310347 123.94588848 -50.76051 131.32622561 -71.15966797 147.2746582 C-71.90474609 147.82379883 -72.64982422 148.37293945 -73.41748047 148.9387207 C-92.44182608 163.95794093 -101.77292798 190.41707688 -105.47216797 213.5246582 C-109.29223998 247.97876921 -102.91747524 282.69536403 -81.15966797 310.2746582 C-68.91786921 324.48169555 -52.70154196 333.5216611 -35.15966797 339.5871582 C-34.47300049 339.82974365 -33.78633301 340.0723291 -33.07885742 340.32226562 C-20.99013581 344.28552828 -8.36063477 344.59457134 4.23513985 344.79537964 C6.91803958 344.83833996 9.60053955 344.89229539 12.28318787 344.94873047 C17.98957175 345.06686168 23.696159 345.17159172 29.40283203 345.2746582 C36.00532603 345.39447142 42.60762459 345.52019441 49.20976067 345.65841675 C51.81079715 345.71024643 54.41186265 345.75265849 57.01307678 345.79443359 C65.68933719 345.95694785 74.30913235 346.37536929 82.95336914 347.15356445 C84.21306818 347.26177773 84.21306818 347.26177773 85.49821568 347.37217712 C115.75972564 350.33162948 142.18684559 368.18664132 161.34619141 391.07348633 C164.43831659 394.97680374 167.21286628 399.04689127 169.84033203 403.2746582 C170.19675781 403.84587402 170.55318359 404.41708984 170.92041016 405.00561523 C181.55703954 422.47378145 188.95911147 444.67887571 186.84033203 465.2746582 C184.34874685 467.76624339 182.88814546 467.51455781 179.48847252 467.53748292 C178.73685072 467.53233935 177.98522891 467.52719579 177.21083069 467.52189636 C176.41398422 467.52431078 175.61713776 467.52672519 174.79614443 467.52921277 C172.11035226 467.53487435 169.42479537 467.52616761 166.73901367 467.51757812 C164.81883174 467.51865054 162.89865012 467.52058862 160.97846985 467.52333069 C155.74604275 467.52819414 150.51370046 467.52050034 145.28128362 467.51037765 C139.7968526 467.50160018 134.31242428 467.50335468 128.82798767 467.5037384 C119.59811995 467.50280024 110.36828498 467.4941036 101.13842773 467.48046875 C90.50737077 467.46482068 79.87634989 467.45946788 69.24528223 467.4602043 C57.89892582 467.46088387 46.55258312 467.4539108 35.20623088 467.4447577 C31.95644181 467.44263898 28.706655 467.44191819 25.45686531 467.44151878 C20.3113228 467.44050247 15.16580975 467.43430271 10.02027702 467.42435265 C8.14640356 467.42146868 6.27252671 467.42019377 4.39865112 467.42078018 C-4.89697842 467.42258581 -14.16588975 467.30247742 -23.45069885 466.82685852 C-24.21481612 466.78801896 -24.97893339 466.7491794 -25.76620573 466.70916289 C-32.91728506 466.30329396 -39.91464416 465.31937097 -46.97216797 464.0871582 C-48.25043457 463.86793701 -49.52870117 463.64871582 -50.84570312 463.42285156 C-73.98999504 459.30203861 -95.43048888 452.30621302 -116.15966797 441.2746582 C-116.81435059 440.93063965 -117.4690332 440.58662109 -118.14355469 440.23217773 C-155.51436407 420.47364036 -186.1020124 389.75726313 -207.15966797 353.2746582 C-207.56072754 352.58388184 -207.96178711 351.89310547 -208.375 351.18139648 C-218.88779904 332.86009795 -226.29136061 312.79907884 -231.15966797 292.2746582 C-231.40233398 291.30061035 -231.645 290.3265625 -231.89501953 289.32299805 C-236.23489763 271.17727587 -236.6610003 253.17303288 -236.72216797 234.5871582 C-236.73092957 233.43822083 -236.73969116 232.28928345 -236.74871826 231.10552979 C-236.92116745 198.10534662 -230.94777619 166.69663436 -218.15966797 136.2746582 C-217.85335449 135.54085937 -217.54704102 134.80706055 -217.23144531 134.05102539 C-208.08947859 112.52715129 -194.6602889 91.16464535 -177.76928711 74.88647461 C-176.06206746 73.17692446 -174.51730332 71.3810366 -172.97216797 69.5246582 C-130.9326089 21.02467691 -62.28701973 -0.08790258 0 0 Z " fill="#504F4D" transform="translate(236.15966796875,224.725341796875)"/>
<path d="M0 0 C2.06658104 -0.00435801 4.13316046 -0.00954475 6.19973755 -0.01548767 C11.75662484 -0.02875744 17.31344366 -0.02947095 22.87034369 -0.02692437 C27.51848328 -0.02584855 32.16660935 -0.03075245 36.81474602 -0.03552979 C47.769737 -0.04657867 58.72469366 -0.04708552 69.6796875 -0.04101562 C80.98226759 -0.03494996 92.28472401 -0.04736282 103.58728302 -0.06858569 C113.30904396 -0.08616899 123.03076539 -0.09220909 132.75254166 -0.08894795 C138.55226465 -0.0871331 144.35189895 -0.08979347 150.15160751 -0.10366249 C155.59036882 -0.11618641 161.02893521 -0.11434865 166.46769333 -0.1012516 C168.46601933 -0.0988761 170.46435886 -0.10165508 172.46266937 -0.10987473 C175.1825265 -0.12025967 177.90171906 -0.11230919 180.62155151 -0.0995636 C181.4183161 -0.10693788 182.21508068 -0.11431217 183.03598964 -0.12190992 C188.33231271 -0.06940915 188.33231271 -0.06940915 190.83838081 1.62788105 C194.01182899 6.84366587 191.22173504 15.83124215 189.93017578 21.56762695 C185.02628212 41.33603889 176.04887156 58.77912773 162.84033203 74.2746582 C162.02822266 75.2337207 161.21611328 76.1927832 160.37939453 77.1809082 C153.64360239 84.93567581 146.17632868 91.29523203 137.84033203 97.2746582 C137.27975098 97.67813477 136.71916992 98.08161133 136.14160156 98.49731445 C106.77771146 119.27923259 75.17031401 121.23532274 40.34033203 121.7746582 C26.95385692 121.98461904 13.57434949 122.23378182 0.19580078 122.75512695 C-0.82553955 122.79404053 -1.84687988 122.8329541 -2.89916992 122.87304688 C-28.80310347 123.94588848 -50.76051 131.32622561 -71.15966797 147.2746582 C-71.90474609 147.82379883 -72.64982422 148.37293945 -73.41748047 148.9387207 C-92.44182608 163.95794093 -101.77292798 190.41707688 -105.47216797 213.5246582 C-109.29223998 247.97876921 -102.91747524 282.69536403 -81.15966797 310.2746582 C-68.91786921 324.48169555 -52.70154196 333.5216611 -35.15966797 339.5871582 C-34.47300049 339.82974365 -33.78633301 340.0723291 -33.07885742 340.32226562 C-20.99013581 344.28552828 -8.36063477 344.59457134 4.23513985 344.79537964 C6.91803958 344.83833996 9.60053955 344.89229539 12.28318787 344.94873047 C17.98957175 345.06686168 23.696159 345.17159172 29.40283203 345.2746582 C36.00532603 345.39447142 42.60762459 345.52019441 49.20976067 345.65841675 C51.81079715 345.71024643 54.41186265 345.75265849 57.01307678 345.79443359 C65.68933719 345.95694785 74.30913235 346.37536929 82.95336914 347.15356445 C84.21306818 347.26177773 84.21306818 347.26177773 85.49821568 347.37217712 C115.75972564 350.33162948 142.18684559 368.18664132 161.34619141 391.07348633 C164.43831659 394.97680374 167.21286628 399.04689127 169.84033203 403.2746582 C170.19675781 403.84587402 170.55318359 404.41708984 170.92041016 405.00561523 C181.55703954 422.47378145 188.95911147 444.67887571 186.84033203 465.2746582 C184.34874685 467.76624339 182.88814546 467.51455781 179.48847252 467.53748292 C178.73685072 467.53233935 177.98522891 467.52719579 177.21083069 467.52189636 C176.41398422 467.52431078 175.61713776 467.52672519 174.79614443 467.52921277 C172.11035226 467.53487435 169.42479537 467.52616761 166.73901367 467.51757812 C164.81883174 467.51865054 162.89865012 467.52058862 160.97846985 467.52333069 C155.74604275 467.52819414 150.51370046 467.52050034 145.28128362 467.51037765 C139.7968526 467.50160018 134.31242428 467.50335468 128.82798767 467.5037384 C119.59811995 467.50280024 110.36828498 467.4941036 101.13842773 467.48046875 C90.50737077 467.46482068 79.87634989 467.45946788 69.24528223 467.4602043 C57.89892582 467.46088387 46.55258312 467.4539108 35.20623088 467.4447577 C31.95644181 467.44263898 28.706655 467.44191819 25.45686531 467.44151878 C20.3113228 467.44050247 15.16580975 467.43430271 10.02027702 467.42435265 C8.14640356 467.42146868 6.27252671 467.42019377 4.39865112 467.42078018 C-4.89697842 467.42258581 -14.16588975 467.30247742 -23.45069885 466.82685852 C-24.21481612 466.78801896 -24.97893339 466.7491794 -25.76620573 466.70916289 C-32.91728506 466.30329396 -39.91464416 465.31937097 -46.97216797 464.0871582 C-48.25043457 463.86793701 -49.52870117 463.64871582 -50.84570312 463.42285156 C-73.98999504 459.30203861 -95.43048888 452.30621302 -116.15966797 441.2746582 C-116.81435059 440.93063965 -117.4690332 440.58662109 -118.14355469 440.23217773 C-155.51436407 420.47364036 -186.1020124 389.75726313 -207.15966797 353.2746582 C-207.56072754 352.58388184 -207.96178711 351.89310547 -208.375 351.18139648 C-218.88779904 332.86009795 -226.29136061 312.79907884 -231.15966797 292.2746582 C-231.40233398 291.30061035 -231.645 290.3265625 -231.89501953 289.32299805 C-236.23489763 271.17727587 -236.6610003 253.17303288 -236.72216797 234.5871582 C-236.73092957 233.43822083 -236.73969116 232.28928345 -236.74871826 231.10552979 C-236.92116745 198.10534662 -230.94777619 166.69663436 -218.15966797 136.2746582 C-217.85335449 135.54085937 -217.54704102 134.80706055 -217.23144531 134.05102539 C-208.08947859 112.52715129 -194.6602889 91.16464535 -177.76928711 74.88647461 C-176.06206746 73.17692446 -174.51730332 71.3810366 -172.97216797 69.5246582 C-130.9326089 21.02467691 -62.28701973 -0.08790258 0 0 Z M-41.72216797 4.9621582 C-43.22807495 5.22270996 -43.22807495 5.22270996 -44.7644043 5.48852539 C-83.10190469 12.37382232 -119.49941226 26.93335215 -150.15966797 51.2746582 C-150.97564453 51.88696289 -151.79162109 52.49926758 -152.63232422 53.13012695 C-167.15489824 64.37558226 -180.73452686 78.13833718 -191.15966797 93.2746582 C-191.5629834 93.84958008 -191.96629883 94.42450195 -192.38183594 95.0168457 C-198.95179312 104.40465728 -204.82990418 114.13272564 -210.15966797 124.2746582 C-210.50239746 124.92595703 -210.84512695 125.57725586 -211.19824219 126.24829102 C-223.10406854 149.26204248 -229.76175754 174.69580166 -233.15966797 200.2746582 C-233.26553223 201.06324219 -233.37139648 201.85182617 -233.48046875 202.66430664 C-241.18693164 262.28863604 -227.16582473 328.10956216 -190.15966797 376.2746582 C-186.62512264 380.72521189 -182.91806421 385.01280078 -179.15966797 389.2746582 C-178.47646484 390.0687207 -177.79326172 390.8627832 -177.08935547 391.6809082 C-160.41817135 411.02236857 -140.16179003 425.46437521 -118.20654297 438.19262695 C-117.47790039 438.61697021 -116.74925781 439.04131348 -115.99853516 439.47851562 C-115.39170898 439.74124268 -114.78488281 440.00396973 -114.15966797 440.2746582 C-113.49966797 439.9446582 -112.83966797 439.6146582 -112.15966797 439.2746582 C-115.94761711 435.39604006 -119.71762477 431.59312226 -123.90966797 428.1496582 C-155.26681099 401.04328703 -173.7050779 355.81888987 -177.15966797 315.2746582 C-177.48817134 309.63178372 -177.50045009 303.98778294 -177.47216797 298.3371582 C-177.47067749 297.59386261 -177.46918701 296.85056702 -177.46765137 296.08474731 C-177.42836761 285.16840686 -176.79763698 274.9064727 -174.15966797 264.2746582 C-173.88453607 262.9281342 -173.61518562 261.58041835 -173.35107422 260.23168945 C-163.91832227 213.83728685 -134.02404153 174.24551888 -95.15966797 148.2746582 C-75.28169266 135.4697983 -53.0133971 127.28946509 -29.84716797 123.0246582 C-28.98365723 122.86118896 -28.12014648 122.69771973 -27.23046875 122.52929688 C-9.11696616 119.440083 9.71632486 120.0553848 28.02783203 119.7746582 C41.52936873 119.56602734 55.02577196 119.32210581 68.52001953 118.81762695 C69.54230148 118.78185547 70.56458344 118.74608398 71.61784363 118.70922852 C79.62405013 118.38738274 87.09128028 117.42106948 94.84033203 115.2746582 C95.86054443 114.99477051 95.86054443 114.99477051 96.90136719 114.70922852 C118.99698928 108.47547821 137.21919149 96.9632595 153.84033203 81.2746582 C154.60087891 80.57856445 155.36142578 79.8824707 156.14501953 79.1652832 C171.66946442 64.44660535 180.98958273 44.55365934 186.84033203 24.2746582 C187.22318359 23.06938477 187.60603516 21.86411133 188.00048828 20.62231445 C188.97607004 16.73791228 188.92397781 12.99649087 188.89282227 9.00292969 C188.88524399 7.74278549 188.87766571 6.4826413 188.86985779 5.18431091 C188.86011429 4.22412552 188.85037079 3.26394012 188.84033203 2.2746582 C162.79640712 2.25124539 136.75248379 2.23363797 110.70855045 2.22284603 C98.6145346 2.21770084 86.52052531 2.21069215 74.42651367 2.19921875 C63.87917353 2.18921746 53.33183814 2.18279186 42.78449339 2.18056971 C37.20542941 2.17927182 31.62637902 2.17624473 26.04731941 2.16892815 C20.783626 2.16208183 15.51995163 2.16005856 10.2562542 2.16155052 C8.33638785 2.16127803 6.41652079 2.15932445 4.49665833 2.15545273 C-10.98237641 2.12579866 -26.43388757 2.27976607 -41.72216797 4.9621582 Z " fill="#FCCD03" transform="translate(236.15966796875,224.725341796875)"/>
<path d="M0 0 C20.58540322 17.19332053 32.789939 40.12281159 35.81689453 66.9074707 C38.35934488 98.00386141 31.64231591 128.43036989 11.99560547 153.09326172 C13.17123047 154.45451172 13.17123047 154.45451172 14.37060547 155.84326172 C14.92232422 156.49939453 15.47404297 157.15552734 16.04248047 157.83154297 C17.38581787 159.38712768 18.77471548 160.90414395 20.19873047 162.38623047 C29.22478682 172.24210167 34.37708056 184.08342322 39.99560547 196.09326172 C40.50462402 197.17704102 41.01364258 198.26082031 41.53808594 199.37744141 C44.21562722 205.09076869 46.86837649 210.81514157 49.50732422 216.54638672 C52.96978643 224.06414091 56.49644184 231.5511514 60.02874756 239.0362854 C95.03023316 313.2305107 95.03023316 313.2305107 87.97998047 337.50732422 C86.48420719 341.43669688 84.49335078 344.72879091 81.99560547 348.09326172 C81.41810547 348.95951172 80.84060547 349.82576172 80.24560547 350.71826172 C75.20746969 356.03629393 68.43253026 360.58719337 61.05029297 361.42919922 C45.28302423 361.62290031 35.11521514 354.93245967 23.80810547 344.34326172 C15.24887899 335.3410111 9.47893157 324.74342386 4.19873047 313.61865234 C2.82379942 310.73263636 1.42603982 307.85822123 0.02685547 304.98388672 C-6.92957773 290.66262328 -13.69006202 276.25771672 -20.31347656 261.77978516 C-21.86236214 258.39815724 -23.42299863 255.02202801 -24.98469543 251.64630127 C-48.06492812 201.74087734 -48.06492812 201.74087734 -48.00439453 187.09326172 C-48.75422607 187.09849854 -49.50405762 187.10373535 -50.27661133 187.10913086 C-53.74836351 187.13020735 -57.22010214 187.14301786 -60.69189453 187.15576172 C-61.87074219 187.16414062 -63.04958984 187.17251953 -64.26416016 187.18115234 C-95.39144802 187.26643258 -119.23597058 178.31904277 -141.64892578 156.49169922 C-162.9254614 133.63261136 -164.82576573 103.62464231 -164.00439453 74.09326172 C-163.1382793 53.61553263 -155.4181427 33.61112725 -142.00439453 18.09326172 C-141.20259766 17.14708984 -140.40080078 16.20091797 -139.57470703 15.22607422 C-106.38577149 -23.04524316 -40.50028229 -32.72122893 0 0 Z " fill="#504F4D" transform="translate(443.00439453125,379.90673828125)"/>
<path d="M0 0 C1.92074205 -0.03302692 3.84124284 -0.08749195 5.76074219 -0.1640625 C21.61267638 -0.79289052 21.61267638 -0.79289052 26.66040039 2.69824219 C28.73292552 5.2621908 30.25420622 7.77885292 31.77148438 10.70019531 C32.73367757 12.06927675 33.71548831 13.42488258 34.72070312 14.76269531 C35.63642779 16.07312889 36.549132 17.38567772 37.45898438 18.70019531 C38.49324724 20.17998679 39.52843547 21.65913185 40.56445312 23.13769531 C41.09087402 23.88921875 41.61729492 24.64074219 42.15966797 25.41503906 C44.83007999 29.20102157 47.55113842 32.95001282 50.27148438 36.70019531 C54.98225506 43.20051296 59.63446421 49.73883946 64.25195312 56.30566406 C67.8860311 61.46586401 71.56829709 66.58941198 75.27148438 71.70019531 C80.98979155 79.59463842 86.62769643 87.54295416 92.23486328 95.51660156 C94.99244742 99.43522764 97.75755205 103.34854572 100.52148438 107.26269531 C102.27155291 109.74181361 104.02153012 112.22099635 105.77148438 114.70019531 C106.42544096 97.18271985 106.85833486 79.67456098 107.01757812 62.14550781 C107.03437997 60.38498929 107.05119519 58.6244709 107.06802368 56.86395264 C107.13522369 49.66700079 107.19812057 42.47004146 107.24829102 35.27294922 C107.27996157 30.78802124 107.32110884 26.30326596 107.3684864 21.81847763 C107.3844631 20.12876279 107.39680459 18.43900942 107.4053936 16.74924088 C107.41746833 14.42037153 107.44155355 12.09192122 107.46850586 9.76318359 C107.469095 9.0725885 107.46968414 8.38199341 107.47029114 7.67047119 C107.54348733 2.92819236 107.54348733 2.92819236 109.77148438 0.70019531 C111.66894531 0.44622803 111.66894531 0.44622803 114.00585938 0.44140625 C114.88016602 0.43510193 115.75447266 0.42879761 116.65527344 0.42230225 C118.07404785 0.42837494 118.07404785 0.42837494 119.52148438 0.43457031 C120.49053711 0.43265686 121.45958984 0.43074341 122.45800781 0.42877197 C124.50911722 0.42740952 126.56023523 0.43111013 128.61132812 0.43945312 C131.75865977 0.45015172 134.90542058 0.43955978 138.05273438 0.42675781 C140.04231897 0.4280794 142.03190322 0.43064177 144.02148438 0.43457031 C144.96733398 0.43052185 145.91318359 0.42647339 146.88769531 0.42230225 C147.76200195 0.42860657 148.63630859 0.43491089 149.53710938 0.44140625 C150.69388184 0.44379303 150.69388184 0.44379303 151.87402344 0.44622803 C153.77148438 0.70019531 153.77148438 0.70019531 155.77148438 2.70019531 C155.96901697 5.29138518 156.04076168 7.77578749 156.02545166 10.36816406 C156.03013163 11.56917503 156.03013163 11.56917503 156.03490615 12.79444885 C156.04291881 15.49227134 156.03654987 18.18987093 156.03027344 20.88769531 C156.03298185 22.81575656 156.03654194 24.74381677 156.04089355 26.671875 C156.05003764 31.91968303 156.04646501 37.16741271 156.04013538 42.41522217 C156.03508581 47.89693418 156.03976392 53.3786393 156.04290771 58.86035156 C156.04655041 68.06739511 156.04174031 77.27440662 156.03222656 86.48144531 C156.02134144 97.13898791 156.0248668 107.796454 156.03587937 118.45399475 C156.04494361 127.59030311 156.04624176 136.72658838 156.04100204 145.86289978 C156.03787757 151.32576757 156.037486 156.78859934 156.04407501 162.25146484 C156.04983532 167.38630775 156.04587579 172.52105163 156.0342865 177.65588379 C156.03163285 179.54496089 156.03241694 181.43404627 156.03681183 183.32312012 C156.04224104 185.89293633 156.03546537 188.46243108 156.02545166 191.03222656 C156.03214383 192.16538048 156.03214383 192.16538048 156.03897119 193.32142639 C155.99978451 198.47189518 155.99978451 198.47189518 153.77148438 200.70019531 C148.03886172 201.27251578 142.30141364 201.32787107 136.54296875 201.40039062 C134.6222267 201.43341754 132.70172591 201.48788257 130.78222656 201.56445312 C114.96009639 202.19209885 114.96009639 202.19209885 109.91772461 198.75488281 C107.82966999 196.17910558 106.30933475 193.63319833 104.77148438 190.70019531 C103.662715 189.11301964 102.53406845 187.53952079 101.38476562 185.98144531 C100.28145357 184.38980636 99.18126816 182.79599616 98.08398438 181.20019531 C93.49986687 174.59141559 88.871757 168.02135887 84.14648438 161.51269531 C79.9191349 155.68601568 75.72831403 149.83624822 71.58398438 143.95019531 C64.25756894 133.54528446 56.85754936 123.19646981 49.39648438 112.88769531 C43.11570526 104.20929378 36.92966133 95.46588864 30.77148438 86.70019531 C29.55793496 97.18657661 29.60728792 107.67007306 29.57225418 118.21165657 C29.56034807 121.47738057 29.5408742 124.74297915 29.51913452 128.00865173 C29.45785498 137.28429037 29.40327245 146.5599077 29.37011719 155.83569336 C29.349227 161.52952538 29.31399342 167.22311391 29.26935959 172.91680717 C29.25518077 175.0829731 29.24647292 177.24918191 29.24330521 179.41539192 C29.23842088 182.43124306 29.21533509 185.44643925 29.18798828 188.4621582 C29.19099442 189.35824295 29.19400055 190.2543277 29.19709778 191.17756653 C29.18600479 191.99734985 29.1749118 192.81713318 29.16348267 193.66175842 C29.16017252 194.37346726 29.15686237 195.08517611 29.15345192 195.81845188 C28.65695547 198.26441604 27.7015985 199.1662433 25.77148438 200.70019531 C23.79173279 201.07441711 23.79173279 201.07441711 21.51538086 201.07250977 C20.6611705 201.07873856 19.80696014 201.08496735 18.92686462 201.09138489 C18.00805008 201.08217514 17.08923553 201.07296539 16.14257812 201.06347656 C15.19713638 201.06397507 14.25169464 201.06447357 13.27760315 201.06498718 C11.2795298 201.06264693 9.28145349 201.05292126 7.28344727 201.03637695 C4.21734405 201.0127597 1.15210868 201.01581941 -1.9140625 201.02246094 C-3.85352083 201.01688511 -5.79297549 201.00977583 -7.73242188 201.00097656 C-9.11368004 201.00234367 -9.11368004 201.00234367 -10.52284241 201.0037384 C-11.3739006 200.99420639 -12.2249588 200.98467438 -13.10180664 200.97485352 C-13.85220718 200.97024612 -14.60260773 200.96563873 -15.37574768 200.96089172 C-17.22851562 200.70019531 -17.22851562 200.70019531 -19.22851562 198.70019531 C-19.42604822 196.10900545 -19.49779293 193.62460314 -19.48248291 191.03222656 C-19.48716288 189.83121559 -19.48716288 189.83121559 -19.4919374 188.60594177 C-19.49995006 185.90811929 -19.49358112 183.2105197 -19.48730469 180.51269531 C-19.4900131 178.58463407 -19.49357319 176.65657386 -19.4979248 174.72851562 C-19.50706889 169.4807076 -19.50349626 164.23297791 -19.49716663 158.98516846 C-19.49211706 153.50345645 -19.49679517 148.02175132 -19.49993896 142.54003906 C-19.50358166 133.33299551 -19.49877156 124.125984 -19.48925781 114.91894531 C-19.47837269 104.26140271 -19.48189805 93.60393662 -19.49291062 82.94639587 C-19.50197486 73.81008752 -19.50327301 64.67380224 -19.49803329 55.53749084 C-19.49490882 50.07462306 -19.49451725 44.61179128 -19.50110626 39.14892578 C-19.50686657 34.01408288 -19.50290704 28.879339 -19.49131775 23.74450684 C-19.4886641 21.85542974 -19.48944819 19.96634436 -19.49384308 18.07727051 C-19.49927229 15.50745429 -19.49249662 12.93795955 -19.48248291 10.36816406 C-19.48694435 9.61272812 -19.4914058 8.85729218 -19.49600244 8.07896423 C-19.41414451 -2.67996492 -8.33577412 0.10497741 0 0 Z " fill="#504F4D" transform="translate(824.228515625,363.2998046875)"/>
<path d="M0 0 C1.70365471 -0.00845947 1.70365471 -0.00845947 3.44172668 -0.01708984 C5.31975227 -0.01101715 5.31975227 -0.01101715 7.23571777 -0.00482178 C8.54952927 -0.00832642 9.86334076 -0.01183105 11.21696472 -0.01544189 C14.82640692 -0.02457931 18.43573511 -0.02101612 22.04517937 -0.01468372 C25.81723215 -0.0096307 29.58927497 -0.01431323 33.36132812 -0.01745605 C39.69659178 -0.02109774 46.03180885 -0.01629131 52.36706543 -0.0067749 C59.69819386 0.00411006 67.02921105 0.00058462 74.36033678 -0.01042771 C80.64741485 -0.01949484 86.93445938 -0.02078869 93.22154188 -0.01555037 C96.97972913 -0.0124275 100.73786405 -0.01203 104.49604797 -0.01862335 C108.68407817 -0.02545719 112.8719157 -0.01599347 117.05993652 -0.00482178 C118.31195358 -0.00887024 119.56397064 -0.0129187 120.85392761 -0.01708984 C121.98969742 -0.0114502 123.12546722 -0.00581055 124.2956543 0 C125.2867495 0.00075405 126.2778447 0.0015081 127.29897308 0.002285 C129.64782715 0.25396729 129.64782715 0.25396729 131.64782715 2.25396729 C131.86002598 5.08762336 131.95179284 7.8210475 131.9486084 10.65631104 C131.95289352 11.48981583 131.95717865 12.32332062 131.96159363 13.18208313 C131.9673415 14.94651378 131.96783383 16.71096814 131.96350098 18.47540283 C131.9603436 21.17739261 131.9837846 23.87828507 132.00915527 26.58013916 C132.01142846 28.2930284 132.01213167 30.00592059 132.0111084 31.71881104 C132.02031815 32.52825668 132.02952789 33.33770233 132.03901672 34.17167664 C131.99369468 39.65872114 131.99369468 39.65872114 130.65072632 41.97000122 C127.41745839 44.04269982 123.94714867 43.64392528 120.22912598 43.59454346 C119.37037369 43.59498154 118.5116214 43.59541962 117.62684631 43.59587097 C114.78595308 43.59377952 111.94564865 43.57043171 109.1048584 43.54693604 C107.13616763 43.54134135 105.16747268 43.53707065 103.19877625 43.53407288 C98.01519251 43.52261409 92.83186063 43.49313795 87.64837646 43.45996094 C82.35981656 43.42928237 77.071216 43.41557227 71.78259277 43.40045166 C61.40420906 43.36826924 51.02607844 43.31549281 40.64782715 43.25396729 C40.97782715 54.47396729 41.30782715 65.69396729 41.64782715 77.25396729 C47.1701709 77.24236572 47.1701709 77.24236572 52.80407715 77.23052979 C66.34638447 77.22208911 79.88472297 77.35237679 93.4251709 77.5713501 C95.94984835 77.61042564 98.4745968 77.64511458 100.99938965 77.67584229 C104.705326 77.72112868 108.41086857 77.77900855 112.11657715 77.83990479 C113.81614563 77.8572316 113.81614563 77.8572316 115.55004883 77.87490845 C116.58713989 77.89477814 117.62423096 77.91464783 118.69274902 77.93511963 C119.60472046 77.9484433 120.51669189 77.96176697 121.45629883 77.97549438 C123.64782715 78.25396729 123.64782715 78.25396729 125.64782715 80.25396729 C125.86002598 83.08762336 125.95179284 85.8210475 125.9486084 88.65631104 C125.95289352 89.48981583 125.95717865 90.32332062 125.96159363 91.18208313 C125.9673415 92.94651378 125.96783383 94.71096814 125.96350098 96.47540283 C125.9603436 99.17739261 125.9837846 101.87828507 126.00915527 104.58013916 C126.01142846 106.2930284 126.01213167 108.00592059 126.0111084 109.71881104 C126.02031815 110.52825668 126.02952789 111.33770233 126.03901672 112.17167664 C125.99352832 117.67886233 125.99352832 117.67886233 124.61630249 119.97000122 C121.53579031 121.97930914 118.33635051 121.64528481 114.77990723 121.59454346 C113.97967636 121.59498154 113.1794455 121.59541962 112.35496521 121.59587097 C109.70884843 121.59378026 107.06336455 121.57043623 104.4173584 121.54693604 C102.58318935 121.54134108 100.74901583 121.53707051 98.9148407 121.53407288 C94.08635082 121.52261619 89.25813149 121.49314193 84.42974854 121.45996094 C78.63700196 121.42388352 72.84416495 121.41010282 67.0513382 121.39260101 C58.24997966 121.36350506 49.44921479 121.30602369 40.64782715 121.25396729 C40.64782715 133.13396729 40.64782715 145.01396729 40.64782715 157.25396729 C43.39401367 157.24349365 46.1402002 157.23302002 48.96960449 157.222229 C58.02604826 157.18914286 67.08249465 157.16701908 76.13898277 157.15034294 C81.63187217 157.13988966 87.12469984 157.12570236 92.61755371 157.10308838 C97.91487869 157.08141498 103.21214416 157.06941031 108.50951004 157.0642128 C110.53419558 157.06050712 112.55887774 157.05327124 114.58353806 157.04250717 C117.41151817 157.02806535 120.23924991 157.02598626 123.06726074 157.0269165 C123.9109874 157.01972595 124.75471405 157.0125354 125.62400818 157.00512695 C131.41972283 157.02586296 131.41972283 157.02586296 133.64782715 159.25396729 C134.42646663 168.06369278 133.44989976 177.1445761 132.77282715 185.94146729 C132.69419434 187.10613525 132.61556152 188.27080322 132.5345459 189.47076416 C132.45075684 190.57871338 132.36696777 191.6866626 132.28063965 192.82818604 C132.20732422 193.82422852 132.13400879 194.820271 132.05847168 195.84649658 C131.64782715 198.25396729 131.64782715 198.25396729 129.64782715 200.25396729 C127.29897308 200.50564957 127.29897308 200.50564957 124.2956543 200.50793457 C122.59199959 200.51639404 122.59199959 200.51639404 120.85392761 200.52502441 C118.97590202 200.51895172 118.97590202 200.51895172 117.05993652 200.51275635 C115.74612503 200.51626099 114.43231354 200.51976562 113.07868958 200.52337646 C109.46924738 200.53251388 105.85991919 200.5289507 102.25047493 200.52261829 C98.47842215 200.51756527 94.70637932 200.5222478 90.93432617 200.52539062 C84.59906252 200.52903231 78.26384545 200.52422588 71.92858887 200.51470947 C64.59746044 200.50382451 57.26644325 200.50734995 49.93531752 200.51836228 C43.64823944 200.52742941 37.36119491 200.52872326 31.07411242 200.52348495 C27.31592516 200.52036207 23.55779024 200.51996457 19.79960632 200.52655792 C15.61157613 200.53339176 11.4237386 200.52392804 7.23571777 200.51275635 C5.98370071 200.51680481 4.73168365 200.52085327 3.44172668 200.52502441 C2.30595688 200.51938477 1.17018707 200.51374512 0 200.50793457 C-0.9910952 200.50718052 -1.9821904 200.50642647 -3.00331879 200.50564957 C-5.35217285 200.25396729 -5.35217285 200.25396729 -7.35217285 198.25396729 C-7.54970545 195.66277742 -7.62145016 193.17837511 -7.60614014 190.58599854 C-7.61082011 189.38498756 -7.61082011 189.38498756 -7.61559463 188.15971375 C-7.62360729 185.46189126 -7.61723834 182.76429167 -7.61096191 180.06646729 C-7.61367033 178.13840604 -7.61723041 176.21034583 -7.62158203 174.2822876 C-7.63072611 169.03447957 -7.62715348 163.78674988 -7.62082386 158.53894043 C-7.61577429 153.05722842 -7.6204524 147.5755233 -7.62359619 142.09381104 C-7.62723889 132.88676748 -7.62242879 123.67975598 -7.61291504 114.47271729 C-7.60202992 103.81517468 -7.60555528 93.15770859 -7.61656785 82.50016785 C-7.62563209 73.36385949 -7.62693024 64.22757422 -7.62169051 55.09126282 C-7.61856605 49.62839503 -7.61817448 44.16556325 -7.62476349 38.70269775 C-7.6305238 33.56785485 -7.62656427 28.43311097 -7.61497498 23.29827881 C-7.61232132 21.40920171 -7.61310542 19.52011633 -7.61750031 17.63104248 C-7.62292951 15.06122626 -7.61615384 12.49173152 -7.60614014 9.92193604 C-7.61060158 9.16650009 -7.61506302 8.41106415 -7.61965966 7.63273621 C-7.57100886 1.23835783 -6.27247909 0.00477227 0 0 Z " fill="#504F4D" transform="translate(660.3521728515625,363.74603271484375)"/>
<path d="M0 0 C0.71542969 0.55042969 1.43085937 1.10085938 2.16796875 1.66796875 C3.17859375 2.38984375 4.18921875 3.11171875 5.23046875 3.85546875 C16.2730852 13.45501601 22.39484831 27.26933737 24.60546875 41.48046875 C24.16796875 43.66796875 24.16796875 43.66796875 22.08398438 45.21801758 C18.70988716 46.89574391 15.79589863 47.4734771 12.07421875 48.0546875 C11.40507446 48.16142288 10.73593018 48.26815826 10.04650879 48.37812805 C8.63872599 48.60062612 7.23012559 48.81800547 5.82080078 49.03051758 C3.67287675 49.35472793 1.52787079 49.69449931 -0.6171875 50.03710938 C-13.07896334 51.98869004 -13.07896334 51.98869004 -16.83203125 51.66796875 C-21.23087512 47.40242318 -23.9109803 41.4311216 -25.83203125 35.66796875 C-27.58070608 34.58365781 -27.58070608 34.58365781 -29.83203125 33.66796875 C-30.62351562 33.16136719 -31.415 32.65476562 -32.23046875 32.1328125 C-37.41504273 30.02411918 -42.22610851 30.19349019 -47.76953125 30.23046875 C-49.35797852 30.20049805 -49.35797852 30.20049805 -50.97851562 30.16992188 C-57.55708604 30.17402579 -61.40827175 30.94144012 -66.83203125 34.66796875 C-67.49203125 34.66796875 -68.15203125 34.66796875 -68.83203125 34.66796875 C-71.43460178 41.4997164 -73.07829403 46.96230366 -70.65625 54.1640625 C-66.66074676 61.83850877 -56.57777905 64.15726184 -48.7578125 66.67578125 C-43.1673613 68.41789871 -37.55613244 70.08796003 -31.94042969 71.74658203 C-12.48962002 77.51216134 7.65204054 83.61494589 19.60546875 101.29296875 C27.47818083 115.80614233 27.69791514 131.52213803 23.28125 147.046875 C18.39951203 162.9253701 5.25081814 175.72889552 -9.20703125 183.4765625 C-35.68858234 195.54372385 -66.61317702 196.05979028 -93.89453125 186.35546875 C-110.12806622 179.49301655 -123.60069665 167.48746316 -130.33203125 150.9921875 C-135.91351316 135.74370983 -135.91351316 135.74370983 -134.83203125 129.66796875 C-131.48251515 126.34539671 -127.74375544 125.88301012 -123.25 125.28125 C-122.15139397 125.12114693 -122.15139397 125.12114693 -121.03059387 124.95780945 C-119.48399839 124.73477474 -117.93657292 124.51743065 -116.38842773 124.30541992 C-114.03622302 123.98275843 -111.68712487 123.64238424 -109.33789062 123.29882812 C-107.82957679 123.08358371 -106.32111716 122.86935802 -104.8125 122.65625 C-103.76995308 122.5063134 -103.76995308 122.5063134 -102.7063446 122.35334778 C-98.38552686 121.76783728 -94.18958224 121.40763868 -89.83203125 121.66796875 C-87.53760129 123.96239871 -87.33818597 125.1331427 -86.58203125 128.23046875 C-84.38314249 135.72618806 -81.27686543 141.71503322 -74.26953125 145.60546875 C-60.93207964 151.43056057 -45.35903347 151.0651187 -31.89453125 145.98046875 C-28.61231292 144.40035656 -27.82496124 143.65736374 -25.70703125 140.48046875 C-24.65251449 135.88578859 -24.91745009 132.2493429 -25.83203125 127.66796875 C-25.94804688 126.60642578 -25.94804688 126.60642578 -26.06640625 125.5234375 C-26.6807245 123.42264303 -26.6807245 123.42264303 -29.08374023 122.69702148 C-29.99067627 122.35743408 -30.8976123 122.01784668 -31.83203125 121.66796875 C-33.41251017 120.89668291 -34.99187087 120.12310289 -36.5703125 119.34765625 C-44.80197283 115.58532029 -53.55446831 113.50980291 -62.27563477 111.19384766 C-83.29008935 105.57872326 -103.97589117 97.56194679 -116.70703125 78.73046875 C-124.12895472 65.8828633 -124.95561951 48.47878053 -121.20703125 34.35546875 C-115.91842518 18.15911265 -105.25744668 4.62604959 -89.96191406 -3.30126953 C-81.89823395 -7.22664535 -73.63393751 -10.49240454 -64.83203125 -12.33203125 C-63.55005859 -12.60660156 -63.55005859 -12.60660156 -62.2421875 -12.88671875 C-40.56211924 -15.71779296 -17.8843359 -13.33506127 0 0 Z " fill="#504F4D" transform="translate(614.83203125,374.33203125)"/>
<path d="M0 0 C0.67675781 0.52851563 1.35351562 1.05703125 2.05078125 1.6015625 C10.37401154 8.93893445 17.45118542 22.59954023 18.2746582 33.70361328 C18.29442879 35.07573155 18.30257571 36.44805297 18.30078125 37.8203125 C18.30506638 38.5602243 18.3093515 39.30013611 18.31376648 40.06246948 C18.31948616 41.62399275 18.32002753 43.18554264 18.31567383 44.74707031 C18.31253672 47.09748738 18.33592124 49.44661526 18.36132812 51.796875 C18.43405775 68.73133436 14.53779747 83.37871757 3.3984375 96.609375 C-7.14552914 107.11899647 -18.87531926 111.87971443 -33.6875 112.1875 C-48.63591247 111.98272723 -60.80746105 108.0797005 -71.74609375 97.52734375 C-85.61340331 81.97769161 -86.04587686 62.71658209 -85 43 C-83.91939947 27.22535111 -77.20840116 13.59568097 -65.8125 2.625 C-47.04405533 -12.83521969 -19.49151522 -15.5785844 0 0 Z " fill="#FDFDFD" transform="translate(412,413)"/>
<path d="M0 0 C2.06658104 -0.00435801 4.13316046 -0.00954475 6.19973755 -0.01548767 C11.75662484 -0.02875744 17.31344366 -0.02947095 22.87034369 -0.02692437 C27.51848328 -0.02584855 32.16660935 -0.03075245 36.81474602 -0.03552979 C47.769737 -0.04657867 58.72469366 -0.04708552 69.6796875 -0.04101562 C80.98226759 -0.03494996 92.28472401 -0.04736282 103.58728302 -0.06858569 C113.30904396 -0.08616899 123.03076539 -0.09220909 132.75254166 -0.08894795 C138.55226465 -0.0871331 144.35189895 -0.08979347 150.15160751 -0.10366249 C155.59036882 -0.11618641 161.02893521 -0.11434865 166.46769333 -0.1012516 C168.46601933 -0.0988761 170.46435886 -0.10165508 172.46266937 -0.10987473 C175.1825265 -0.12025967 177.90171906 -0.11230919 180.62155151 -0.0995636 C181.4183161 -0.10693788 182.21508068 -0.11431217 183.03598964 -0.12190992 C188.33231271 -0.06940915 188.33231271 -0.06940915 190.83838081 1.62788105 C194.01182899 6.84366587 191.22173504 15.83124215 189.93017578 21.56762695 C185.02628212 41.33603889 176.04887156 58.77912773 162.84033203 74.2746582 C162.02822266 75.2337207 161.21611328 76.1927832 160.37939453 77.1809082 C153.64360239 84.93567581 146.17632868 91.29523203 137.84033203 97.2746582 C137.27975098 97.67813477 136.71916992 98.08161133 136.14160156 98.49731445 C106.77771146 119.27923259 75.17031401 121.23532274 40.34033203 121.7746582 C26.95385692 121.98461904 13.57434949 122.23378182 0.19580078 122.75512695 C-0.82553955 122.79404053 -1.84687988 122.8329541 -2.89916992 122.87304688 C-28.80310347 123.94588848 -50.76051 131.32622561 -71.15966797 147.2746582 C-71.90474609 147.82379883 -72.64982422 148.37293945 -73.41748047 148.9387207 C-92.44182608 163.95794093 -101.77292798 190.41707688 -105.47216797 213.5246582 C-109.29223998 247.97876921 -102.91747524 282.69536403 -81.15966797 310.2746582 C-68.91786921 324.48169555 -52.70154196 333.5216611 -35.15966797 339.5871582 C-34.47300049 339.82974365 -33.78633301 340.0723291 -33.07885742 340.32226562 C-20.99013581 344.28552828 -8.36063477 344.59457134 4.23513985 344.79537964 C6.91803958 344.83833996 9.60053955 344.89229539 12.28318787 344.94873047 C17.98957175 345.06686168 23.696159 345.17159172 29.40283203 345.2746582 C36.00532603 345.39447142 42.60762459 345.52019441 49.20976067 345.65841675 C51.81079715 345.71024643 54.41186265 345.75265849 57.01307678 345.79443359 C65.68933719 345.95694785 74.30913235 346.37536929 82.95336914 347.15356445 C84.21306818 347.26177773 84.21306818 347.26177773 85.49821568 347.37217712 C115.75972564 350.33162948 142.18684559 368.18664132 161.34619141 391.07348633 C164.43831659 394.97680374 167.21286628 399.04689127 169.84033203 403.2746582 C170.19675781 403.84587402 170.55318359 404.41708984 170.92041016 405.00561523 C181.55703954 422.47378145 188.95911147 444.67887571 186.84033203 465.2746582 C184.34874685 467.76624339 182.88814546 467.51455781 179.48847252 467.53748292 C178.73685072 467.53233935 177.98522891 467.52719579 177.21083069 467.52189636 C176.41398422 467.52431078 175.61713776 467.52672519 174.79614443 467.52921277 C172.11035226 467.53487435 169.42479537 467.52616761 166.73901367 467.51757812 C164.81883174 467.51865054 162.89865012 467.52058862 160.97846985 467.52333069 C155.74604275 467.52819414 150.51370046 467.52050034 145.28128362 467.51037765 C139.7968526 467.50160018 134.31242428 467.50335468 128.82798767 467.5037384 C119.59811995 467.50280024 110.36828498 467.4941036 101.13842773 467.48046875 C90.50737077 467.46482068 79.87634989 467.45946788 69.24528223 467.4602043 C57.89892582 467.46088387 46.55258312 467.4539108 35.20623088 467.4447577 C31.95644181 467.44263898 28.706655 467.44191819 25.45686531 467.44151878 C20.3113228 467.44050247 15.16580975 467.43430271 10.02027702 467.42435265 C8.14640356 467.42146868 6.27252671 467.42019377 4.39865112 467.42078018 C-4.89697842 467.42258581 -14.16588975 467.30247742 -23.45069885 466.82685852 C-24.21481612 466.78801896 -24.97893339 466.7491794 -25.76620573 466.70916289 C-32.91728506 466.30329396 -39.91464416 465.31937097 -46.97216797 464.0871582 C-48.25043457 463.86793701 -49.52870117 463.64871582 -50.84570312 463.42285156 C-73.98999504 459.30203861 -95.43048888 452.30621302 -116.15966797 441.2746582 C-116.81435059 440.93063965 -117.4690332 440.58662109 -118.14355469 440.23217773 C-155.51436407 420.47364036 -186.1020124 389.75726313 -207.15966797 353.2746582 C-207.56072754 352.58388184 -207.96178711 351.89310547 -208.375 351.18139648 C-218.88779904 332.86009795 -226.29136061 312.79907884 -231.15966797 292.2746582 C-231.40233398 291.30061035 -231.645 290.3265625 -231.89501953 289.32299805 C-236.23489763 271.17727587 -236.6610003 253.17303288 -236.72216797 234.5871582 C-236.73092957 233.43822083 -236.73969116 232.28928345 -236.74871826 231.10552979 C-236.92116745 198.10534662 -230.94777619 166.69663436 -218.15966797 136.2746582 C-217.85335449 135.54085937 -217.54704102 134.80706055 -217.23144531 134.05102539 C-208.08947859 112.52715129 -194.6602889 91.16464535 -177.76928711 74.88647461 C-176.06206746 73.17692446 -174.51730332 71.3810366 -172.97216797 69.5246582 C-130.9326089 21.02467691 -62.28701973 -0.08790258 0 0 Z M-41.72216797 4.9621582 C-43.22807495 5.22270996 -43.22807495 5.22270996 -44.7644043 5.48852539 C-83.10190469 12.37382232 -119.49941226 26.93335215 -150.15966797 51.2746582 C-150.97564453 51.88696289 -151.79162109 52.49926758 -152.63232422 53.13012695 C-167.15489824 64.37558226 -180.73452686 78.13833718 -191.15966797 93.2746582 C-191.5629834 93.84958008 -191.96629883 94.42450195 -192.38183594 95.0168457 C-198.95179312 104.40465728 -204.82990418 114.13272564 -210.15966797 124.2746582 C-210.50239746 124.92595703 -210.84512695 125.57725586 -211.19824219 126.24829102 C-223.10406854 149.26204248 -229.76175754 174.69580166 -233.15966797 200.2746582 C-233.26553223 201.06324219 -233.37139648 201.85182617 -233.48046875 202.66430664 C-241.18693164 262.28863604 -227.16582473 328.10956216 -190.15966797 376.2746582 C-186.62512264 380.72521189 -182.91806421 385.01280078 -179.15966797 389.2746582 C-178.47646484 390.0687207 -177.79326172 390.8627832 -177.08935547 391.6809082 C-144.73521488 429.21731374 -98.56398386 452.78097964 -50.15966797 461.2746582 C-49.11480225 461.47188477 -49.11480225 461.47188477 -48.04882812 461.6730957 C-37.78634721 463.59292447 -27.62171 464.5368614 -17.18847656 464.85449219 C-15.90364065 464.89498153 -14.61880474 464.93547087 -13.29503441 464.97718716 C4.54448198 465.49689015 22.39388458 465.40214464 40.23903227 465.37605214 C45.34381182 465.36969156 50.44859234 465.36920497 55.55337524 465.36802673 C65.16781688 465.36495012 74.7822468 465.3567876 84.39668334 465.34667724 C95.36452063 465.33540035 106.33235855 465.32997684 117.30020022 465.32498181 C139.81358393 465.31460078 162.32695731 465.29707446 184.84033203 465.2746582 C184.85242164 463.36411078 184.86102261 461.45354108 184.86816406 459.54296875 C184.87333038 458.4790239 184.8784967 457.41507904 184.88381958 456.31889343 C184.4850502 428.40405765 169.25951936 401.24652936 150.46533203 381.5246582 C129.82035972 361.79318025 103.29631981 349.30870421 74.49804688 348.83569336 C73.52888336 348.81256577 72.55971985 348.78943817 71.56118774 348.76560974 C69.47651712 348.71668675 67.3917549 348.67154351 65.30692673 348.62987137 C61.99099835 348.56249607 58.6755796 348.48259142 55.36001587 348.39926147 C45.93961915 348.16423873 36.51887637 347.947568 27.09765625 347.74829102 C21.31382943 347.6250757 15.53064215 347.48416943 9.74748611 347.33283615 C7.56231625 347.27913787 5.37697302 347.23202217 3.19150925 347.19203568 C-25.11648029 346.67091931 -51.67592727 339.77762848 -73.15966797 320.2746582 C-73.65354004 319.82993164 -74.14741211 319.38520508 -74.65625 318.92700195 C-92.07450003 303.0510216 -101.18691879 283.03217771 -106.15966797 260.2746582 C-106.40716797 259.17379883 -106.65466797 258.07293945 -106.90966797 256.9387207 C-112.33119117 227.04504414 -107.89281774 193.03289539 -91.15966797 167.2746582 C-87.75273132 162.38743154 -84.02909278 157.80071267 -80.15966797 153.2746582 C-79.57701172 152.58887695 -78.99435547 151.9030957 -78.39404297 151.1965332 C-61.26983753 132.68855359 -34.10211262 121.96933664 -9.42919922 120.7590332 C-8.13196175 120.69504333 -8.13196175 120.69504333 -6.80851746 120.62976074 C4.79715006 120.09491082 16.4123536 119.95273059 28.02783203 119.7746582 C41.52936873 119.56602734 55.02577196 119.32210581 68.52001953 118.81762695 C69.54230148 118.78185547 70.56458344 118.74608398 71.61784363 118.70922852 C79.62405013 118.38738274 87.09128028 117.42106948 94.84033203 115.2746582 C95.86054443 114.99477051 95.86054443 114.99477051 96.90136719 114.70922852 C118.99698928 108.47547821 137.21919149 96.9632595 153.84033203 81.2746582 C154.60087891 80.57856445 155.36142578 79.8824707 156.14501953 79.1652832 C171.66946442 64.44660535 180.98958273 44.55365934 186.84033203 24.2746582 C187.22318359 23.06938477 187.60603516 21.86411133 188.00048828 20.62231445 C188.97607004 16.73791228 188.92397781 12.99649087 188.89282227 9.00292969 C188.88524399 7.74278549 188.87766571 6.4826413 188.86985779 5.18431091 C188.86011429 4.22412552 188.85037079 3.26394012 188.84033203 2.2746582 C162.79640712 2.25124539 136.75248379 2.23363797 110.70855045 2.22284603 C98.6145346 2.21770084 86.52052531 2.21069215 74.42651367 2.19921875 C63.87917353 2.18921746 53.33183814 2.18279186 42.78449339 2.18056971 C37.20542941 2.17927182 31.62637902 2.17624473 26.04731941 2.16892815 C20.783626 2.16208183 15.51995163 2.16005856 10.2562542 2.16155052 C8.33638785 2.16127803 6.41652079 2.15932445 4.49665833 2.15545273 C-10.98237641 2.12579866 -26.43388757 2.27976607 -41.72216797 4.9621582 Z " fill="#FAF9F6" transform="translate(236.15966796875,224.725341796875)"/>
<path d="M0 0 C20.58540322 17.19332053 32.789939 40.12281159 35.81689453 66.9074707 C38.35934488 98.00386141 31.64231591 128.43036989 11.99560547 153.09326172 C13.17123047 154.45451172 13.17123047 154.45451172 14.37060547 155.84326172 C14.92232422 156.49939453 15.47404297 157.15552734 16.04248047 157.83154297 C17.38581787 159.38712768 18.77471548 160.90414395 20.19873047 162.38623047 C29.22478682 172.24210167 34.37708056 184.08342322 39.99560547 196.09326172 C40.50462402 197.17704102 41.01364258 198.26082031 41.53808594 199.37744141 C44.21562722 205.09076869 46.86837649 210.81514157 49.50732422 216.54638672 C52.96978643 224.06414091 56.49644184 231.5511514 60.02874756 239.0362854 C95.03023316 313.2305107 95.03023316 313.2305107 87.97998047 337.50732422 C86.48420719 341.43669688 84.49335078 344.72879091 81.99560547 348.09326172 C81.41810547 348.95951172 80.84060547 349.82576172 80.24560547 350.71826172 C75.20746969 356.03629393 68.43253026 360.58719337 61.05029297 361.42919922 C45.28302423 361.62290031 35.11521514 354.93245967 23.80810547 344.34326172 C15.24887899 335.3410111 9.47893157 324.74342386 4.19873047 313.61865234 C2.82379942 310.73263636 1.42603982 307.85822123 0.02685547 304.98388672 C-6.92957773 290.66262328 -13.69006202 276.25771672 -20.31347656 261.77978516 C-21.86236214 258.39815724 -23.42299863 255.02202801 -24.98469543 251.64630127 C-48.06492812 201.74087734 -48.06492812 201.74087734 -48.00439453 187.09326172 C-48.75422607 187.09849854 -49.50405762 187.10373535 -50.27661133 187.10913086 C-53.74836351 187.13020735 -57.22010214 187.14301786 -60.69189453 187.15576172 C-61.87074219 187.16414062 -63.04958984 187.17251953 -64.26416016 187.18115234 C-95.39144802 187.26643258 -119.23597058 178.31904277 -141.64892578 156.49169922 C-162.9254614 133.63261136 -164.82576573 103.62464231 -164.00439453 74.09326172 C-163.1382793 53.61553263 -155.4181427 33.61112725 -142.00439453 18.09326172 C-141.20259766 17.14708984 -140.40080078 16.20091797 -139.57470703 15.22607422 C-106.38577149 -23.04524316 -40.50028229 -32.72122893 0 0 Z M-133.00439453 11.09326172 C-133.68115234 11.69525391 -134.35791016 12.29724609 -135.05517578 12.91748047 C-150.43948872 27.13024252 -160.26962701 49.47149312 -161.37255859 70.28344727 C-161.52195251 74.96670523 -161.52229521 79.64507598 -161.47094727 84.33007812 C-161.44185921 87.22177263 -161.45041457 90.11163772 -161.46337891 93.00341797 C-161.43472688 118.38612182 -153.71075911 141.40486348 -136.00439453 160.09326172 C-120.74652966 174.73653659 -98.67543044 184.31611391 -77.54736328 184.19091797 C-76.64440018 184.18950302 -75.74143707 184.18808807 -74.81111145 184.18663025 C-71.9380049 184.18104995 -69.06497738 184.16850106 -66.19189453 184.15576172 C-64.2394217 184.15074417 -62.28694765 184.14618171 -60.33447266 184.14208984 C-55.55774968 184.13108697 -50.78108549 184.1138359 -46.00439453 184.09326172 C-45.99021484 184.84607422 -45.97603516 185.59888672 -45.96142578 186.37451172 C-45.25780475 202.04434233 -39.21447829 215.55870523 -32.62939453 229.53076172 C-31.92154751 231.05175328 -31.2147834 232.57324921 -30.5090332 234.09521484 C-29.42123442 236.44035384 -28.33259642 238.78506785 -27.24009705 241.12802124 C-24.81889181 246.32140453 -22.43398307 251.52986437 -20.07861328 256.75341797 C-19.7647316 257.44934555 -19.45084991 258.14527313 -19.12745667 258.86228943 C-18.50102428 260.25144966 -17.87462527 261.64062495 -17.2482605 263.02981567 C-11.31691679 276.17073787 -5.18250168 289.1961923 1.12841797 302.15966797 C3.25986144 306.54345318 5.31643915 310.95403129 7.33178711 315.39208984 C15.98998029 334.35827446 28.13122532 350.2287839 47.99560547 358.09326172 C55.61267465 360.2982028 63.95995939 359.78196728 70.99560547 356.09326172 C80.20127389 349.69470295 84.71312395 342.04905239 87.30810547 331.28076172 C92.03442303 302.18867107 74.65989024 275.18390848 62.59945679 249.88500977 C58.62426804 241.54558833 54.71051757 233.18350336 50.87060547 224.78076172 C46.22190914 214.6377037 41.41727014 204.57419067 36.55810547 194.53076172 C36.2164032 193.82253265 35.87470093 193.11430359 35.52264404 192.38461304 C28.87453484 177.74009609 28.87453484 177.74009609 19.49560547 164.84326172 C18.33738281 163.60189453 18.33738281 163.60189453 17.15576172 162.33544922 C14.7979631 159.88811394 12.43767021 157.45655017 9.99560547 155.09326172 C11.502258 150.79084219 13.78111698 147.22273344 16.30810547 143.46826172 C33.46016377 117.17230436 37.76582805 84.78554172 31.49169922 54.29638672 C26.29626919 31.22376831 12.65033442 9.4639228 -7.50439453 -3.34423828 C-23.64482235 -12.5809997 -40.25847176 -16.63500733 -58.73388672 -16.42822266 C-61.00482817 -16.40673418 -63.27260865 -16.42819698 -65.54345703 -16.45361328 C-91.43823427 -16.50469777 -114.34136256 -6.75697489 -133.00439453 11.09326172 Z " fill="#F4F4F4" transform="translate(443.00439453125,379.90673828125)"/>
<path d="M0 0 C1.92074205 -0.03302692 3.84124284 -0.08749195 5.76074219 -0.1640625 C21.61267638 -0.79289052 21.61267638 -0.79289052 26.66040039 2.69824219 C28.73292552 5.2621908 30.25420622 7.77885292 31.77148438 10.70019531 C32.73367757 12.06927675 33.71548831 13.42488258 34.72070312 14.76269531 C35.63642779 16.07312889 36.549132 17.38567772 37.45898438 18.70019531 C38.49324724 20.17998679 39.52843547 21.65913185 40.56445312 23.13769531 C41.09087402 23.88921875 41.61729492 24.64074219 42.15966797 25.41503906 C44.83007999 29.20102157 47.55113842 32.95001282 50.27148438 36.70019531 C54.98225506 43.20051296 59.63446421 49.73883946 64.25195312 56.30566406 C67.8860311 61.46586401 71.56829709 66.58941198 75.27148438 71.70019531 C80.98979155 79.59463842 86.62769643 87.54295416 92.23486328 95.51660156 C94.99244742 99.43522764 97.75755205 103.34854572 100.52148438 107.26269531 C102.27155291 109.74181361 104.02153012 112.22099635 105.77148438 114.70019531 C106.42544096 97.18271985 106.85833486 79.67456098 107.01757812 62.14550781 C107.03437997 60.38498929 107.05119519 58.6244709 107.06802368 56.86395264 C107.13522369 49.66700079 107.19812057 42.47004146 107.24829102 35.27294922 C107.27996157 30.78802124 107.32110884 26.30326596 107.3684864 21.81847763 C107.3844631 20.12876279 107.39680459 18.43900942 107.4053936 16.74924088 C107.41746833 14.42037153 107.44155355 12.09192122 107.46850586 9.76318359 C107.469095 9.0725885 107.46968414 8.38199341 107.47029114 7.67047119 C107.54348733 2.92819236 107.54348733 2.92819236 109.77148438 0.70019531 C111.66894531 0.44622803 111.66894531 0.44622803 114.00585938 0.44140625 C114.88016602 0.43510193 115.75447266 0.42879761 116.65527344 0.42230225 C118.07404785 0.42837494 118.07404785 0.42837494 119.52148438 0.43457031 C120.49053711 0.43265686 121.45958984 0.43074341 122.45800781 0.42877197 C124.50911722 0.42740952 126.56023523 0.43111013 128.61132812 0.43945312 C131.75865977 0.45015172 134.90542058 0.43955978 138.05273438 0.42675781 C140.04231897 0.4280794 142.03190322 0.43064177 144.02148438 0.43457031 C144.96733398 0.43052185 145.91318359 0.42647339 146.88769531 0.42230225 C147.76200195 0.42860657 148.63630859 0.43491089 149.53710938 0.44140625 C150.69388184 0.44379303 150.69388184 0.44379303 151.87402344 0.44622803 C153.77148438 0.70019531 153.77148438 0.70019531 155.77148438 2.70019531 C155.96901697 5.29138518 156.04076168 7.77578749 156.02545166 10.36816406 C156.03013163 11.56917503 156.03013163 11.56917503 156.03490615 12.79444885 C156.04291881 15.49227134 156.03654987 18.18987093 156.03027344 20.88769531 C156.03298185 22.81575656 156.03654194 24.74381677 156.04089355 26.671875 C156.05003764 31.91968303 156.04646501 37.16741271 156.04013538 42.41522217 C156.03508581 47.89693418 156.03976392 53.3786393 156.04290771 58.86035156 C156.04655041 68.06739511 156.04174031 77.27440662 156.03222656 86.48144531 C156.02134144 97.13898791 156.0248668 107.796454 156.03587937 118.45399475 C156.04494361 127.59030311 156.04624176 136.72658838 156.04100204 145.86289978 C156.03787757 151.32576757 156.037486 156.78859934 156.04407501 162.25146484 C156.04983532 167.38630775 156.04587579 172.52105163 156.0342865 177.65588379 C156.03163285 179.54496089 156.03241694 181.43404627 156.03681183 183.32312012 C156.04224104 185.89293633 156.03546537 188.46243108 156.02545166 191.03222656 C156.03214383 192.16538048 156.03214383 192.16538048 156.03897119 193.32142639 C155.99978451 198.47189518 155.99978451 198.47189518 153.77148438 200.70019531 C148.03886172 201.27251578 142.30141364 201.32787107 136.54296875 201.40039062 C134.6222267 201.43341754 132.70172591 201.48788257 130.78222656 201.56445312 C114.96009639 202.19209885 114.96009639 202.19209885 109.91772461 198.75488281 C107.82966999 196.17910558 106.30933475 193.63319833 104.77148438 190.70019531 C103.662715 189.11301964 102.53406845 187.53952079 101.38476562 185.98144531 C100.28145357 184.38980636 99.18126816 182.79599616 98.08398438 181.20019531 C93.49986687 174.59141559 88.871757 168.02135887 84.14648438 161.51269531 C79.9191349 155.68601568 75.72831403 149.83624822 71.58398438 143.95019531 C64.25756894 133.54528446 56.85754936 123.19646981 49.39648438 112.88769531 C43.11570526 104.20929378 36.92966133 95.46588864 30.77148438 86.70019531 C29.55793496 97.18657661 29.60728792 107.67007306 29.57225418 118.21165657 C29.56034807 121.47738057 29.5408742 124.74297915 29.51913452 128.00865173 C29.45785498 137.28429037 29.40327245 146.5599077 29.37011719 155.83569336 C29.349227 161.52952538 29.31399342 167.22311391 29.26935959 172.91680717 C29.25518077 175.0829731 29.24647292 177.24918191 29.24330521 179.41539192 C29.23842088 182.43124306 29.21533509 185.44643925 29.18798828 188.4621582 C29.19099442 189.35824295 29.19400055 190.2543277 29.19709778 191.17756653 C29.18600479 191.99734985 29.1749118 192.81713318 29.16348267 193.66175842 C29.16017252 194.37346726 29.15686237 195.08517611 29.15345192 195.81845188 C28.65695547 198.26441604 27.7015985 199.1662433 25.77148438 200.70019531 C23.79173279 201.07441711 23.79173279 201.07441711 21.51538086 201.07250977 C20.6611705 201.07873856 19.80696014 201.08496735 18.92686462 201.09138489 C18.00805008 201.08217514 17.08923553 201.07296539 16.14257812 201.06347656 C15.19713638 201.06397507 14.25169464 201.06447357 13.27760315 201.06498718 C11.2795298 201.06264693 9.28145349 201.05292126 7.28344727 201.03637695 C4.21734405 201.0127597 1.15210868 201.01581941 -1.9140625 201.02246094 C-3.85352083 201.01688511 -5.79297549 201.00977583 -7.73242188 201.00097656 C-9.11368004 201.00234367 -9.11368004 201.00234367 -10.52284241 201.0037384 C-11.3739006 200.99420639 -12.2249588 200.98467438 -13.10180664 200.97485352 C-13.85220718 200.97024612 -14.60260773 200.96563873 -15.37574768 200.96089172 C-17.22851562 200.70019531 -17.22851562 200.70019531 -19.22851562 198.70019531 C-19.42604822 196.10900545 -19.49779293 193.62460314 -19.48248291 191.03222656 C-19.48716288 189.83121559 -19.48716288 189.83121559 -19.4919374 188.60594177 C-19.49995006 185.90811929 -19.49358112 183.2105197 -19.48730469 180.51269531 C-19.4900131 178.58463407 -19.49357319 176.65657386 -19.4979248 174.72851562 C-19.50706889 169.4807076 -19.50349626 164.23297791 -19.49716663 158.98516846 C-19.49211706 153.50345645 -19.49679517 148.02175132 -19.49993896 142.54003906 C-19.50358166 133.33299551 -19.49877156 124.125984 -19.48925781 114.91894531 C-19.47837269 104.26140271 -19.48189805 93.60393662 -19.49291062 82.94639587 C-19.50197486 73.81008752 -19.50327301 64.67380224 -19.49803329 55.53749084 C-19.49490882 50.07462306 -19.49451725 44.61179128 -19.50110626 39.14892578 C-19.50686657 34.01408288 -19.50290704 28.879339 -19.49131775 23.74450684 C-19.4886641 21.85542974 -19.48944819 19.96634436 -19.49384308 18.07727051 C-19.49927229 15.50745429 -19.49249662 12.93795955 -19.48248291 10.36816406 C-19.48694435 9.61272812 -19.4914058 8.85729218 -19.49600244 8.07896423 C-19.41414451 -2.67996492 -8.33577412 0.10497741 0 0 Z M-17.22851562 2.70019531 C-17.22851562 67.38019531 -17.22851562 132.06019531 -17.22851562 198.70019531 C-3.03851562 198.70019531 11.15148437 198.70019531 25.77148438 198.70019531 C27.38512481 197.08655488 26.91312855 195.33298771 26.92970276 193.10020447 C26.94438599 191.6088372 26.94438599 191.6088372 26.95936584 190.08734131 C26.96512131 188.98754944 26.97087677 187.88775757 26.97680664 186.75463867 C26.98670624 185.60357132 26.99660583 184.45250397 27.00680542 183.26655579 C27.038531 179.44107152 27.0632214 175.61557482 27.08789062 171.79003906 C27.10845061 169.14587572 27.12944682 166.50171574 27.15086365 163.8575592 C27.20084044 157.59607492 27.24576069 151.33456487 27.28888601 145.07303005 C27.33821587 137.94614688 27.39314971 130.81931039 27.4485656 123.69247234 C27.56246215 109.02842419 27.6692844 94.36432958 27.77148438 79.70019531 C29.69589557 82.25540056 31.61826289 84.81213662 33.5402832 87.36914062 C34.08163155 88.08788361 34.62297989 88.80662659 35.18073273 89.54714966 C39.09067352 94.75172789 42.84328985 100.03657189 46.45898438 105.45019531 C50.64769815 111.64578058 54.94369605 117.69039095 59.47851562 123.63769531 C62.76401683 128.02582639 65.89989872 132.51501239 69.04907227 137.00146484 C72.74797168 142.26530564 76.49551994 147.49140485 80.27148438 152.70019531 C85.99308784 160.59878251 91.63358099 168.55171808 97.24365234 176.52978516 C98.86610226 178.83460775 100.49216626 181.13684577 102.11914062 183.43847656 C102.66755615 184.21441162 103.21597168 184.99034668 103.78100586 185.78979492 C104.83370155 187.27903239 105.88658919 188.7681342 106.93969727 190.25708008 C107.64920532 191.26146118 107.64920532 191.26146118 108.37304688 192.28613281 C108.78893066 192.87442871 109.20481445 193.46272461 109.63330078 194.06884766 C110.70033104 195.59821191 111.73707505 197.14858133 112.77148438 198.70019531 C126.30148437 198.70019531 139.83148437 198.70019531 153.77148438 198.70019531 C153.77148438 134.02019531 153.77148438 69.34019531 153.77148438 2.70019531 C139.25148438 2.70019531 124.73148438 2.70019531 109.77148438 2.70019531 C109.44148438 41.97019531 109.11148438 81.24019531 108.77148438 121.70019531 C104.48148438 115.76019531 100.19148437 109.82019531 95.77148438 103.70019531 C93.19451757 100.14147002 93.19451757 100.14147002 90.6171875 96.58300781 C85.45748972 89.45532545 80.3521621 82.29225556 75.29077148 75.09448242 C71.65687751 69.93429336 67.97470364 64.81081382 64.27148438 59.70019531 C59.56322906 53.20257931 54.91213245 46.66795839 50.29760742 40.10351562 C46.10996799 34.15603365 41.85741503 28.25693519 37.57421875 22.37792969 C32.86170533 15.88826556 28.34154624 9.30139578 23.77148438 2.70019531 C10.24148438 2.70019531 -3.28851562 2.70019531 -17.22851562 2.70019531 Z " fill="#FBFBFB" transform="translate(824.228515625,363.2998046875)"/>
<path d="M0 0 C1.70365471 -0.00845947 1.70365471 -0.00845947 3.44172668 -0.01708984 C5.31975227 -0.01101715 5.31975227 -0.01101715 7.23571777 -0.00482178 C8.54952927 -0.00832642 9.86334076 -0.01183105 11.21696472 -0.01544189 C14.82640692 -0.02457931 18.43573511 -0.02101612 22.04517937 -0.01468372 C25.81723215 -0.0096307 29.58927497 -0.01431323 33.36132812 -0.01745605 C39.69659178 -0.02109774 46.03180885 -0.01629131 52.36706543 -0.0067749 C59.69819386 0.00411006 67.02921105 0.00058462 74.36033678 -0.01042771 C80.64741485 -0.01949484 86.93445938 -0.02078869 93.22154188 -0.01555037 C96.97972913 -0.0124275 100.73786405 -0.01203 104.49604797 -0.01862335 C108.68407817 -0.02545719 112.8719157 -0.01599347 117.05993652 -0.00482178 C118.31195358 -0.00887024 119.56397064 -0.0129187 120.85392761 -0.01708984 C121.98969742 -0.0114502 123.12546722 -0.00581055 124.2956543 0 C125.2867495 0.00075405 126.2778447 0.0015081 127.29897308 0.002285 C129.64782715 0.25396729 129.64782715 0.25396729 131.64782715 2.25396729 C131.86002598 5.08762336 131.95179284 7.8210475 131.9486084 10.65631104 C131.95289352 11.48981583 131.95717865 12.32332062 131.96159363 13.18208313 C131.9673415 14.94651378 131.96783383 16.71096814 131.96350098 18.47540283 C131.9603436 21.17739261 131.9837846 23.87828507 132.00915527 26.58013916 C132.01142846 28.2930284 132.01213167 30.00592059 132.0111084 31.71881104 C132.02031815 32.52825668 132.02952789 33.33770233 132.03901672 34.17167664 C131.99369468 39.65872114 131.99369468 39.65872114 130.65072632 41.97000122 C127.41745839 44.04269982 123.94714867 43.64392528 120.22912598 43.59454346 C119.37037369 43.59498154 118.5116214 43.59541962 117.62684631 43.59587097 C114.78595308 43.59377952 111.94564865 43.57043171 109.1048584 43.54693604 C107.13616763 43.54134135 105.16747268 43.53707065 103.19877625 43.53407288 C98.01519251 43.52261409 92.83186063 43.49313795 87.64837646 43.45996094 C82.35981656 43.42928237 77.071216 43.41557227 71.78259277 43.40045166 C61.40420906 43.36826924 51.02607844 43.31549281 40.64782715 43.25396729 C40.97782715 54.47396729 41.30782715 65.69396729 41.64782715 77.25396729 C47.1701709 77.24236572 47.1701709 77.24236572 52.80407715 77.23052979 C66.34638447 77.22208911 79.88472297 77.35237679 93.4251709 77.5713501 C95.94984835 77.61042564 98.4745968 77.64511458 100.99938965 77.67584229 C104.705326 77.72112868 108.41086857 77.77900855 112.11657715 77.83990479 C113.81614563 77.8572316 113.81614563 77.8572316 115.55004883 77.87490845 C116.58713989 77.89477814 117.62423096 77.91464783 118.69274902 77.93511963 C119.60472046 77.9484433 120.51669189 77.96176697 121.45629883 77.97549438 C123.64782715 78.25396729 123.64782715 78.25396729 125.64782715 80.25396729 C125.86002598 83.08762336 125.95179284 85.8210475 125.9486084 88.65631104 C125.95289352 89.48981583 125.95717865 90.32332062 125.96159363 91.18208313 C125.9673415 92.94651378 125.96783383 94.71096814 125.96350098 96.47540283 C125.9603436 99.17739261 125.9837846 101.87828507 126.00915527 104.58013916 C126.01142846 106.2930284 126.01213167 108.00592059 126.0111084 109.71881104 C126.02031815 110.52825668 126.02952789 111.33770233 126.03901672 112.17167664 C125.99352832 117.67886233 125.99352832 117.67886233 124.61630249 119.97000122 C121.53579031 121.97930914 118.33635051 121.64528481 114.77990723 121.59454346 C113.97967636 121.59498154 113.1794455 121.59541962 112.35496521 121.59587097 C109.70884843 121.59378026 107.06336455 121.57043623 104.4173584 121.54693604 C102.58318935 121.54134108 100.74901583 121.53707051 98.9148407 121.53407288 C94.08635082 121.52261619 89.25813149 121.49314193 84.42974854 121.45996094 C78.63700196 121.42388352 72.84416495 121.41010282 67.0513382 121.39260101 C58.24997966 121.36350506 49.44921479 121.30602369 40.64782715 121.25396729 C40.64782715 133.13396729 40.64782715 145.01396729 40.64782715 157.25396729 C43.39401367 157.24349365 46.1402002 157.23302002 48.96960449 157.222229 C58.02604826 157.18914286 67.08249465 157.16701908 76.13898277 157.15034294 C81.63187217 157.13988966 87.12469984 157.12570236 92.61755371 157.10308838 C97.91487869 157.08141498 103.21214416 157.06941031 108.50951004 157.0642128 C110.53419558 157.06050712 112.55887774 157.05327124 114.58353806 157.04250717 C117.41151817 157.02806535 120.23924991 157.02598626 123.06726074 157.0269165 C123.9109874 157.01972595 124.75471405 157.0125354 125.62400818 157.00512695 C131.41972283 157.02586296 131.41972283 157.02586296 133.64782715 159.25396729 C134.42646663 168.06369278 133.44989976 177.1445761 132.77282715 185.94146729 C132.69419434 187.10613525 132.61556152 188.27080322 132.5345459 189.47076416 C132.45075684 190.57871338 132.36696777 191.6866626 132.28063965 192.82818604 C132.20732422 193.82422852 132.13400879 194.820271 132.05847168 195.84649658 C131.64782715 198.25396729 131.64782715 198.25396729 129.64782715 200.25396729 C127.29897308 200.50564957 127.29897308 200.50564957 124.2956543 200.50793457 C122.59199959 200.51639404 122.59199959 200.51639404 120.85392761 200.52502441 C118.97590202 200.51895172 118.97590202 200.51895172 117.05993652 200.51275635 C115.74612503 200.51626099 114.43231354 200.51976562 113.07868958 200.52337646 C109.46924738 200.53251388 105.85991919 200.5289507 102.25047493 200.52261829 C98.47842215 200.51756527 94.70637932 200.5222478 90.93432617 200.52539062 C84.59906252 200.52903231 78.26384545 200.52422588 71.92858887 200.51470947 C64.59746044 200.50382451 57.26644325 200.50734995 49.93531752 200.51836228 C43.64823944 200.52742941 37.36119491 200.52872326 31.07411242 200.52348495 C27.31592516 200.52036207 23.55779024 200.51996457 19.79960632 200.52655792 C15.61157613 200.53339176 11.4237386 200.52392804 7.23571777 200.51275635 C5.98370071 200.51680481 4.73168365 200.52085327 3.44172668 200.52502441 C2.30595688 200.51938477 1.17018707 200.51374512 0 200.50793457 C-0.9910952 200.50718052 -1.9821904 200.50642647 -3.00331879 200.50564957 C-5.35217285 200.25396729 -5.35217285 200.25396729 -7.35217285 198.25396729 C-7.54970545 195.66277742 -7.62145016 193.17837511 -7.60614014 190.58599854 C-7.61082011 189.38498756 -7.61082011 189.38498756 -7.61559463 188.15971375 C-7.62360729 185.46189126 -7.61723834 182.76429167 -7.61096191 180.06646729 C-7.61367033 178.13840604 -7.61723041 176.21034583 -7.62158203 174.2822876 C-7.63072611 169.03447957 -7.62715348 163.78674988 -7.62082386 158.53894043 C-7.61577429 153.05722842 -7.6204524 147.5755233 -7.62359619 142.09381104 C-7.62723889 132.88676748 -7.62242879 123.67975598 -7.61291504 114.47271729 C-7.60202992 103.81517468 -7.60555528 93.15770859 -7.61656785 82.50016785 C-7.62563209 73.36385949 -7.62693024 64.22757422 -7.62169051 55.09126282 C-7.61856605 49.62839503 -7.61817448 44.16556325 -7.62476349 38.70269775 C-7.6305238 33.56785485 -7.62656427 28.43311097 -7.61497498 23.29827881 C-7.61232132 21.40920171 -7.61310542 19.52011633 -7.61750031 17.63104248 C-7.62292951 15.06122626 -7.61615384 12.49173152 -7.60614014 9.92193604 C-7.61060158 9.16650009 -7.61506302 8.41106415 -7.61965966 7.63273621 C-7.57100886 1.23835783 -6.27247909 0.00477227 0 0 Z M-5.35217285 2.25396729 C-5.35217285 66.93396729 -5.35217285 131.61396729 -5.35217285 198.25396729 C39.19782715 198.25396729 83.74782715 198.25396729 129.64782715 198.25396729 C131.05381881 178.76664216 131.05381881 178.76664216 131.64782715 159.25396729 C100.95782715 159.25396729 70.26782715 159.25396729 38.64782715 159.25396729 C38.64782715 146.05396729 38.64782715 132.85396729 38.64782715 119.25396729 C44.89720215 119.27459229 51.14657715 119.29521729 57.58532715 119.31646729 C79.28510835 119.35095678 100.95874265 118.90012019 122.64782715 118.25396729 C123.66873863 105.52903491 123.64782715 93.08074242 123.64782715 80.25396729 C95.92782715 79.92396729 68.20782715 79.59396729 39.64782715 79.25396729 C39.31782715 66.71396729 38.98782715 54.17396729 38.64782715 41.25396729 C68.34782715 41.25396729 98.04782715 41.25396729 128.64782715 41.25396729 C129.41146434 28.27213501 129.64782715 15.25824009 129.64782715 2.25396729 C85.09782715 2.25396729 40.54782715 2.25396729 -5.35217285 2.25396729 Z " fill="#FDFDFD" transform="translate(660.3521728515625,363.74603271484375)"/>
<path d="M0 0 C0.71542969 0.55042969 1.43085937 1.10085938 2.16796875 1.66796875 C3.17859375 2.38984375 4.18921875 3.11171875 5.23046875 3.85546875 C16.2730852 13.45501601 22.39484831 27.26933737 24.60546875 41.48046875 C24.16796875 43.66796875 24.16796875 43.66796875 22.08398438 45.21801758 C18.70988716 46.89574391 15.79589863 47.4734771 12.07421875 48.0546875 C11.40507446 48.16142288 10.73593018 48.26815826 10.04650879 48.37812805 C8.63872599 48.60062612 7.23012559 48.81800547 5.82080078 49.03051758 C3.67287675 49.35472793 1.52787079 49.69449931 -0.6171875 50.03710938 C-13.07896334 51.98869004 -13.07896334 51.98869004 -16.83203125 51.66796875 C-21.23087512 47.40242318 -23.9109803 41.4311216 -25.83203125 35.66796875 C-27.58070608 34.58365781 -27.58070608 34.58365781 -29.83203125 33.66796875 C-30.62351562 33.16136719 -31.415 32.65476562 -32.23046875 32.1328125 C-37.41504273 30.02411918 -42.22610851 30.19349019 -47.76953125 30.23046875 C-49.35797852 30.20049805 -49.35797852 30.20049805 -50.97851562 30.16992188 C-57.55708604 30.17402579 -61.40827175 30.94144012 -66.83203125 34.66796875 C-67.49203125 34.66796875 -68.15203125 34.66796875 -68.83203125 34.66796875 C-71.43460178 41.4997164 -73.07829403 46.96230366 -70.65625 54.1640625 C-66.66074676 61.83850877 -56.57777905 64.15726184 -48.7578125 66.67578125 C-43.1673613 68.41789871 -37.55613244 70.08796003 -31.94042969 71.74658203 C-12.48962002 77.51216134 7.65204054 83.61494589 19.60546875 101.29296875 C27.47818083 115.80614233 27.69791514 131.52213803 23.28125 147.046875 C18.39951203 162.9253701 5.25081814 175.72889552 -9.20703125 183.4765625 C-35.68858234 195.54372385 -66.61317702 196.05979028 -93.89453125 186.35546875 C-110.12806622 179.49301655 -123.60069665 167.48746316 -130.33203125 150.9921875 C-135.91351316 135.74370983 -135.91351316 135.74370983 -134.83203125 129.66796875 C-131.48251515 126.34539671 -127.74375544 125.88301012 -123.25 125.28125 C-122.15139397 125.12114693 -122.15139397 125.12114693 -121.03059387 124.95780945 C-119.48399839 124.73477474 -117.93657292 124.51743065 -116.38842773 124.30541992 C-114.03622302 123.98275843 -111.68712487 123.64238424 -109.33789062 123.29882812 C-107.82957679 123.08358371 -106.32111716 122.86935802 -104.8125 122.65625 C-103.76995308 122.5063134 -103.76995308 122.5063134 -102.7063446 122.35334778 C-98.38552686 121.76783728 -94.18958224 121.40763868 -89.83203125 121.66796875 C-87.53760129 123.96239871 -87.33818597 125.1331427 -86.58203125 128.23046875 C-84.38314249 135.72618806 -81.27686543 141.71503322 -74.26953125 145.60546875 C-60.93207964 151.43056057 -45.35903347 151.0651187 -31.89453125 145.98046875 C-28.61231292 144.40035656 -27.82496124 143.65736374 -25.70703125 140.48046875 C-24.65251449 135.88578859 -24.91745009 132.2493429 -25.83203125 127.66796875 C-25.94804688 126.60642578 -25.94804688 126.60642578 -26.06640625 125.5234375 C-26.6807245 123.42264303 -26.6807245 123.42264303 -29.08374023 122.69702148 C-29.99067627 122.35743408 -30.8976123 122.01784668 -31.83203125 121.66796875 C-33.41251017 120.89668291 -34.99187087 120.12310289 -36.5703125 119.34765625 C-44.80197283 115.58532029 -53.55446831 113.50980291 -62.27563477 111.19384766 C-83.29008935 105.57872326 -103.97589117 97.56194679 -116.70703125 78.73046875 C-124.12895472 65.8828633 -124.95561951 48.47878053 -121.20703125 34.35546875 C-115.91842518 18.15911265 -105.25744668 4.62604959 -89.96191406 -3.30126953 C-81.89823395 -7.22664535 -73.63393751 -10.49240454 -64.83203125 -12.33203125 C-63.55005859 -12.60660156 -63.55005859 -12.60660156 -62.2421875 -12.88671875 C-40.56211924 -15.71779296 -17.8843359 -13.33506127 0 0 Z M-52.79931641 -11.23974609 C-73.92434151 -10.09350252 -92.65182549 -2.55891305 -107.38671875 12.84765625 C-117.95364575 25.03507045 -121.56487092 39.81548951 -120.83203125 55.66796875 C-119.54000528 69.95408443 -114.62684457 81.04779765 -103.83203125 90.66796875 C-89.92371066 101.37699245 -72.66725991 106.31936039 -55.95703125 110.73046875 C-30.36919108 117.4922274 -30.36919108 117.4922274 -23.83203125 126.66796875 C-21.63255387 131.0669235 -22.41502904 136.39243257 -23.89453125 140.91796875 C-28.37064576 147.27116354 -33.93873631 149.54208732 -41.31640625 151.1640625 C-54.71059657 153.08389645 -67.49735124 152.51309201 -78.79296875 144.390625 C-84.69859501 139.40138902 -87.41247269 134.18833726 -88.99609375 126.671875 C-89.27195312 126.01058594 -89.5478125 125.34929687 -89.83203125 124.66796875 C-94.00013354 123.18363421 -97.97043834 124.02017391 -102.24609375 124.62890625 C-103.46236954 124.7939415 -103.46236954 124.7939415 -104.70321655 124.96231079 C-106.41331398 125.19590546 -108.12291469 125.43316186 -109.83203125 125.67382812 C-112.45331994 126.04244685 -115.07602815 126.39910228 -117.69921875 126.75390625 C-119.36077364 126.9823718 -121.02223549 127.21151522 -122.68359375 127.44140625 C-123.4700528 127.54875092 -124.25651184 127.65609558 -125.06680298 127.76669312 C-129.0728016 128.28399398 -129.0728016 128.28399398 -132.83203125 129.66796875 C-131.46092569 146.80678827 -124.52068495 161.9741055 -111.83203125 173.66796875 C-101.43259017 181.67475647 -89.54318009 185.93438836 -76.83203125 188.66796875 C-75.99671875 188.87421875 -75.16140625 189.08046875 -74.30078125 189.29296875 C-51.92163737 194.26611183 -24.53892217 190.12687895 -4.7265625 178.61328125 C0.04116993 175.40905621 4.14028908 171.75082211 8.16796875 167.66796875 C8.90015625 166.94609375 9.63234375 166.22421875 10.38671875 165.48046875 C20.4693138 154.94641422 23.5324687 142.44725529 23.48046875 128.23046875 C23.49658203 127.35326172 23.51269531 126.47605469 23.52929688 125.57226562 C23.53777937 114.06152353 19.53091745 102.78950837 11.7734375 94.125 C-1.94089915 81.67865555 -21.81962794 76.8850177 -39.14306641 71.86303711 C-66.97938736 63.74965755 -66.97938736 63.74965755 -72.83203125 54.66796875 C-74.44418423 49.8315098 -74.72828463 44.59078234 -73.21875 39.66796875 C-70.73552778 34.76716015 -66.59293545 31.30996028 -61.83203125 28.66796875 C-57.32637784 27.34183672 -52.68077903 27.44876147 -48.01953125 27.41796875 C-47.25060547 27.39734375 -46.48167969 27.37671875 -45.68945312 27.35546875 C-37.9809192 27.30342801 -31.38028757 29.33002756 -25.57421875 34.57421875 C-21.84231801 39.05919363 -19.37872423 44.45073146 -16.83203125 49.66796875 C-3.72022459 48.14811341 9.28249329 46.57959061 22.16796875 43.66796875 C21.72739668 31.11166489 16.07619015 19.26327739 8.16796875 9.66796875 C7.67039062 9.04664063 7.1728125 8.4253125 6.66015625 7.78515625 C-5.28892047 -5.60501515 -24.60122467 -10.41882441 -41.75390625 -11.51953125 C-45.45061838 -11.60122655 -49.10780345 -11.41291461 -52.79931641 -11.23974609 Z " fill="#F5F5F5" transform="translate(614.83203125,374.33203125)"/>
<path d="M0 0 C0.33 0 0.66 0 1 0 C1.02683987 2.97922593 1.04676037 5.95821295 1.0625 8.9375 C1.07087891 9.78763672 1.07925781 10.63777344 1.08789062 11.51367188 C1.09111328 12.32255859 1.09433594 13.13144531 1.09765625 13.96484375 C1.10289307 14.7137085 1.10812988 15.46257324 1.11352539 16.23413086 C1 18 1 18 0 19 C-2.7388842 19.09516211 -5.45247941 19.12554594 -8.19165039 19.11352539 C-9.05011063 19.11367142 -9.90857086 19.11381744 -10.79304504 19.1139679 C-13.64460738 19.11326847 -16.49610525 19.1054747 -19.34765625 19.09765625 C-21.31920842 19.09579218 -23.29076105 19.09436822 -25.26231384 19.09336853 C-30.46226267 19.08954251 -35.66218375 19.07971152 -40.86212158 19.06866455 C-46.16393661 19.05845222 -51.4657561 19.05387129 -56.76757812 19.04882812 C-67.17839959 19.03808932 -77.58919315 19.02049185 -88 19 C-87.67 30.22 -87.34 41.44 -87 53 C-81.47765625 52.98839844 -81.47765625 52.98839844 -75.84375 52.9765625 C-62.30144268 52.96812182 -48.76310418 53.0984095 -35.22265625 53.31738281 C-32.6979788 53.35645836 -30.17323035 53.3911473 -27.6484375 53.421875 C-23.94250115 53.46716139 -20.23695858 53.52504126 -16.53125 53.5859375 C-14.83168152 53.60326431 -14.83168152 53.60326431 -13.09777832 53.62094116 C-12.06068726 53.64081085 -11.02359619 53.66068054 -9.95507812 53.68115234 C-9.04310669 53.69447601 -8.13113525 53.70779968 -7.19152832 53.7215271 C-5 54 -5 54 -3 56 C-2.78785212 58.84523308 -2.69603363 61.59067232 -2.69921875 64.4375 C-2.69493362 65.27337646 -2.6906485 66.10925293 -2.68623352 66.97045898 C-2.68048627 68.73908583 -2.67999287 70.50773631 -2.68432617 72.27636719 C-2.68748758 74.9893401 -2.6640278 77.70122442 -2.63867188 80.4140625 C-2.63639914 82.13020695 -2.63569527 83.84635435 -2.63671875 85.5625 C-2.627509 86.37710693 -2.61829926 87.19171387 -2.60881042 88.03100586 C-2.62768555 90.31640625 -2.62768555 90.31640625 -3 94 C-6.10044863 96.06696575 -6.62657628 96.24225919 -10.10424805 96.13525391 C-10.92487228 96.11508209 -11.74549652 96.09491028 -12.59098816 96.0741272 C-13.47232925 96.04193085 -14.35367035 96.0097345 -15.26171875 95.9765625 C-16.16751175 95.95153656 -17.07330475 95.92651062 -18.00654602 95.90072632 C-20.90057836 95.81853209 -23.79392769 95.72194031 -26.6875 95.625 C-28.64906061 95.56675985 -30.61064928 95.50945658 -32.57226562 95.453125 C-37.38190349 95.31295407 -42.1909782 95.15986893 -47 95 C-47 94.67 -47 94.34 -47 94 C-33.47 94 -19.94 94 -6 94 C-6 88.72 -6 83.44 -6 78 C-5.8625495 73.99429971 -5.70850872 70.00111319 -5.5 66 C-5.45230469 65.02289063 -5.40460938 64.04578125 -5.35546875 63.0390625 C-5.24044178 60.69251235 -5.12198148 58.34619701 -5 56 C-6.57520668 56.00333092 -6.57520668 56.00333092 -8.18223572 56.00672913 C-18.05645581 56.02696015 -27.93067172 56.04197195 -37.8049078 56.05181217 C-42.88191018 56.0570411 -47.95889589 56.06413892 -53.03588867 56.07543945 C-57.93120552 56.08626799 -62.82650629 56.09227676 -67.72183418 56.09487724 C-69.59382951 56.09673155 -71.46582391 56.10035228 -73.33781242 56.10573006 C-75.95040699 56.11294004 -78.56293427 56.11399096 -81.17553711 56.11352539 C-81.95740387 56.11712067 -82.73927063 56.12071594 -83.54483032 56.12442017 C-88.88594784 56.11405216 -88.88594784 56.11405216 -90 55 C-90 42.46 -90 29.92 -90 17 C-60.3 17 -30.6 17 0 17 C0 11.39 0 5.78 0 0 Z " fill="#F6F6F5" transform="translate(789,388)"/>
<path d="M0 0 C0.33 0 0.66 0 1 0 C1.03440186 0.56058105 1.06880371 1.12116211 1.10424805 1.69873047 C4.52899777 54.29651453 21.97886416 104.15995586 57 144 C58.12686892 145.33175418 59.25225554 146.66476682 60.375 148 C77.65316707 167.74647665 99.75382764 183.08960158 123 195 C123 195.66 123 196.32 123 197 C117.84216691 195.51712299 113.57184507 193.23006698 109 190.5 C108.25451904 190.05640137 107.50903809 189.61280273 106.7409668 189.15576172 C73.9466916 169.37508779 47.08880167 141.07154528 28 108 C27.59894043 107.30922363 27.19788086 106.61844727 26.78466797 105.90673828 C13.51130461 82.77443528 5.54696709 57.4409459 1.125 31.25 C0.9094043 29.97632568 0.69380859 28.70265137 0.47167969 27.39038086 C-1.03247144 17.9719752 -1.37384091 9.44515624 0 0 Z " fill="#F4F4F3" transform="translate(1,470)"/>
<path d="M0 0 C2.06658104 -0.00435801 4.13316046 -0.00954475 6.19973755 -0.01548767 C11.75662484 -0.02875744 17.31344366 -0.02947095 22.87034369 -0.02692437 C27.51848328 -0.02584855 32.16660935 -0.03075245 36.81474602 -0.03552979 C47.769737 -0.04657867 58.72469366 -0.04708552 69.6796875 -0.04101562 C80.98226759 -0.03494996 92.28472401 -0.04736282 103.58728302 -0.06858569 C113.30904396 -0.08616899 123.03076539 -0.09220909 132.75254166 -0.08894795 C138.55226465 -0.0871331 144.35189895 -0.08979347 150.15160751 -0.10366249 C155.59036882 -0.11618641 161.02893521 -0.11434865 166.46769333 -0.1012516 C168.46601933 -0.0988761 170.46435886 -0.10165508 172.46266937 -0.10987473 C175.1825265 -0.12025967 177.90171906 -0.11230919 180.62155151 -0.0995636 C181.4183161 -0.10693788 182.21508068 -0.11431217 183.03598964 -0.12190992 C188.29873931 -0.06974195 188.29873931 -0.06974195 190.87353706 1.56757832 C192.51197439 4.46058408 191.48846541 7.15183376 190.84033203 10.2746582 C190.51033203 10.2746582 190.18033203 10.2746582 189.84033203 10.2746582 C189.51033203 7.9646582 189.18033203 5.6546582 188.84033203 3.2746582 C162.95184366 3.25119529 137.0633569 3.23361372 111.17486 3.22284603 C99.15172595 3.21771133 87.12859854 3.21072313 75.10546875 3.19921875 C64.61407573 3.18918488 54.12268753 3.18278428 43.63128984 3.18056971 C38.08715046 3.17927724 32.54302485 3.17628577 26.99888992 3.16892815 C-6.09305155 3.10302907 -6.09305155 3.10302907 -39.15966797 4.2746582 C-38.82966797 3.6146582 -38.49966797 2.9546582 -38.15966797 2.2746582 C-35.71962857 1.77977757 -33.38826378 1.4317383 -30.91964722 1.16682434 C-30.1611239 1.08259651 -29.40260059 0.99836868 -28.62109172 0.91158849 C-19.09346265 -0.05255708 -9.56631536 -0.01350047 0 0 Z " fill="#FCFCFC" transform="translate(236.15966796875,224.725341796875)"/>
<path d="M0 0 C5.62358277 5.62358277 5.62358277 5.62358277 7.875 8.79296875 C8.63018921 9.84786499 8.63018921 9.84786499 9.40063477 10.92407227 C9.92842529 11.67100342 10.45621582 12.41793457 11 13.1875 C12.15478982 14.8048004 13.30974231 16.42198465 14.46484375 18.0390625 C15.05120605 18.8630957 15.63756836 19.68712891 16.24169922 20.53613281 C18.46031321 23.64502651 20.70109767 26.73748754 22.94335938 29.8293457 C28.1782747 37.04945585 33.35090217 44.31063994 38.48071289 51.60571289 C42.11460792 56.76590345 45.79687944 61.88930875 49.5 67 C55.22643909 74.90566966 60.87099397 82.86603869 66.48535156 90.8515625 C68.06529214 93.09261296 69.65284423 95.32810946 71.2421875 97.5625 C71.77706787 98.31587646 72.31194824 99.06925293 72.86303711 99.84545898 C73.87516576 101.27066294 74.8888707 102.69474949 75.90454102 104.11743164 C79.11264725 108.6420273 82.10954263 113.26637519 85 118 C81.85044636 116.64898842 80.19704987 115.32340553 78.22265625 112.53515625 C77.46263306 111.47337158 77.46263306 111.47337158 76.68725586 110.39013672 C76.15108643 109.6220166 75.61491699 108.85389648 75.0625 108.0625 C74.49474854 107.26344238 73.92699707 106.46438477 73.34204102 105.64111328 C68.74612697 99.1446428 64.27576069 92.56272347 59.8112793 85.97558594 C55.83089843 80.1324948 51.65646473 74.46855367 47.37646484 68.84277344 C43.49011859 63.71305249 39.82763502 58.4568746 36.20996094 53.13549805 C31.18837086 45.76686044 25.94779947 38.5606543 20.70556641 31.34814453 C17.73453015 27.25775995 14.77363812 23.16005252 11.8125 19.0625 C11.25965332 18.2988916 10.70680664 17.5352832 10.13720703 16.74853516 C9.62399902 16.03874512 9.11079102 15.32895508 8.58203125 14.59765625 C7.90491089 13.66191772 7.90491089 13.66191772 7.21411133 12.70727539 C6.11300446 11.15890613 5.05391339 9.58087009 4 8 C3.9498877 8.87325928 3.89977539 9.74651855 3.84814453 10.64624023 C3.65822292 13.87641498 3.45974212 17.10591488 3.25537109 20.33520508 C3.16858109 21.73473458 3.08523737 23.13448214 3.00537109 24.53442383 C2.89018805 26.54301701 2.76170573 28.55083375 2.6328125 30.55859375 C2.55949707 31.76829834 2.48618164 32.97800293 2.41064453 34.22436523 C2.27513184 35.14032471 2.13961914 36.05628418 2 37 C1.01 37.495 1.01 37.495 0 38 C0 25.46 0 12.92 0 0 Z " fill="#F3F3F3" transform="translate(851,442)"/>
<path d="M0 0 C1.99467112 -0.01009108 3.98928726 -0.02962638 5.98388672 -0.04931641 C7.74152344 -0.05125 7.74152344 -0.05125 9.53466797 -0.05322266 C10.53385254 -0.05733154 11.53303711 -0.06144043 12.5625 -0.06567383 C14.90185547 0.17724609 14.90185547 0.17724609 16.90185547 2.17724609 C17.11400335 5.02247917 17.20582184 7.76791842 17.20263672 10.61474609 C17.20692184 11.45062256 17.21120697 12.28649902 17.21562195 13.14770508 C17.2213692 14.91633192 17.2218626 16.68498241 17.2175293 18.45361328 C17.21436789 21.1665862 17.23782767 23.87847051 17.26318359 26.59130859 C17.26545633 28.30745305 17.2661602 30.02360044 17.26513672 31.73974609 C17.27434647 32.55435303 17.28355621 33.36895996 17.29304504 34.20825195 C17.27416992 36.49365234 17.27416992 36.49365234 16.90185547 40.17724609 C13.80140684 42.24421185 13.27527918 42.41950528 9.79760742 42.3125 C8.97698318 42.29232819 8.15635895 42.27215637 7.31086731 42.25137329 C5.98885567 42.20307877 5.98885567 42.20307877 4.64013672 42.15380859 C3.28144722 42.11626968 3.28144722 42.11626968 1.89530945 42.07797241 C-0.99872289 41.99577818 -3.89207222 41.8991864 -6.78564453 41.80224609 C-8.74720514 41.74400594 -10.70879381 41.68670268 -12.67041016 41.63037109 C-17.48004802 41.49020016 -22.28912274 41.33711503 -27.09814453 41.17724609 C-27.09814453 40.84724609 -27.09814453 40.51724609 -27.09814453 40.17724609 C-13.56814453 40.17724609 -0.03814453 40.17724609 13.90185547 40.17724609 C13.90185547 34.89724609 13.90185547 29.61724609 13.90185547 24.17724609 C14.23185547 16.91724609 14.56185547 9.65724609 14.90185547 2.17724609 C-12.81814453 2.17724609 -40.53814453 2.17724609 -69.09814453 2.17724609 C-69.09814453 1.84724609 -69.09814453 1.51724609 -69.09814453 1.17724609 C-18.31815237 0.08114826 -18.31815237 0.08114826 0 0 Z " fill="#E3E3E3" transform="translate(769.09814453125,441.82275390625)"/>
<path d="M0 0 C20.25730057 0.93783799 38.18427361 11.40350899 52.375 25.15625 C53.21804688 25.96964844 54.06109375 26.78304688 54.9296875 27.62109375 C61.68185658 34.64194776 70.1620653 45.20639501 71.375 55.15625 C70.715 55.15625 70.055 55.15625 69.375 55.15625 C68.63056641 53.68865234 68.63056641 53.68865234 67.87109375 52.19140625 C63.97789277 44.62725204 60.0988277 37.51986683 54.375 31.15625 C53.57449219 30.26292969 52.77398437 29.36960937 51.94921875 28.44921875 C34.57342338 10.06758862 11.93972226 3.24265885 -12.6875 2.40625 C-16.66650606 2.29585868 -20.6448269 2.20949646 -24.625 2.15625 C-24.625 1.82625 -24.625 1.49625 -24.625 1.15625 C-21.27096947 0.98676801 -17.91675736 0.82117694 -14.5625 0.65625 C-13.61955078 0.60855469 -12.67660156 0.56085938 -11.70507812 0.51171875 C-7.80419349 0.32143169 -3.90188532 0.16818471 0 0 Z " fill="#F5F5F5" transform="translate(398.625,361.84375)"/>
<path d="M0 0 C23.36447647 -0.73610369 47.95641078 9.8761882 65.28515625 25.20703125 C64.95515625 25.86703125 64.62515625 26.52703125 64.28515625 27.20703125 C63.53234375 26.65015625 62.77953125 26.09328125 62.00390625 25.51953125 C40.74157298 10.24368016 18.79140179 3.18382605 -7.40234375 2.58203125 C-8.79754742 2.54373981 -10.19273027 2.50468215 -11.58789062 2.46484375 C-14.96341544 2.37140362 -18.33894645 2.28563709 -21.71484375 2.20703125 C-21.71484375 1.87703125 -21.71484375 1.54703125 -21.71484375 1.20703125 C-16.50130345 0.87601282 -11.28770095 0.57691402 -6.06982422 0.32275391 C-4.046133 0.22331065 -2.02299385 0.11274309 0 0 Z " fill="#FDFAEF" transform="translate(312.71484375,571.79296875)"/>
<path d="M0 0 C0.99 0.495 0.99 0.495 2 1 C-0.13951289 3.3588432 -2.03357986 4.65888016 -4.95703125 5.90234375 C-5.73344971 6.23355225 -6.50986816 6.56476074 -7.30981445 6.90600586 C-8.13570068 7.24639893 -8.96158691 7.58679199 -9.8125 7.9375 C-10.65965576 8.29013916 -11.50681152 8.64277832 -12.37963867 9.00610352 C-31.22803586 16.69653394 -47.98748843 17.42220894 -68 16 C-68 15.67 -68 15.34 -68 15 C-66.98184204 14.97812622 -66.98184204 14.97812622 -65.94311523 14.95581055 C-43.50953681 14.41846796 -21.6461235 12.08035136 -1.75 0.78515625 C-1.1725 0.52605469 -0.595 0.26695312 0 0 Z " fill="#F3F3F3" transform="translate(359,328)"/>
<path d="M0 0 C9.57 0 19.14 0 29 0 C29.66 4.95 30.32 9.9 31 15 C30.01 14.67 29.02 14.34 28 14 C27.67 10.37 27.34 6.74 27 3 C18.09 3 9.18 3 0 3 C0 2.01 0 1.02 0 0 Z " fill="#ECEBEB" transform="translate(368,564)"/>
<path d="M0 0 C-0.33 0.99 -0.66 1.98 -1 3 C-1.92039063 3.09796875 -2.84078125 3.1959375 -3.7890625 3.296875 C-15.49970553 4.68020961 -26.71304208 6.9958803 -37.328125 12.36328125 C-38.15570313 12.67845703 -38.15570313 12.67845703 -39 13 C-39.66 12.67 -40.32 12.34 -41 12 C-39.4238522 8.84770439 -36.26232337 8.27912194 -33.125 7.0625 C-32.44896729 6.79671143 -31.77293457 6.53092285 -31.07641602 6.25708008 C-20.85061997 2.31403634 -10.98700531 -0.18943113 0 0 Z " fill="#FDFAEF" transform="translate(226,345)"/>
<path d="M0 0 C0.66 0 1.32 0 2 0 C2 2.97 2 5.94 2 9 C2.99290039 8.99214478 2.99290039 8.99214478 4.00585938 8.98413086 C20.03461292 8.87519491 35.99174364 9.17928765 52 10 C52 10.33 52 10.66 52 11 C34.84 11 17.68 11 0 11 C0 7.37 0 3.74 0 0 Z " fill="#FDFDFD" transform="translate(700,432)"/>
<path d="M0 0 C0.33 0 0.66 0 1 0 C1 12.87 1 25.74 1 39 C-3.0434431 34.9565569 -4.8204342 32.93270155 -7 28 C-3.125 29.75 -3.125 29.75 -2 32 C-1.96241577 30.59923218 -1.96241577 30.59923218 -1.92407227 29.17016602 C-1.82913072 25.71674811 -1.72988742 22.2635104 -1.62768555 18.81030273 C-1.58428187 17.31360731 -1.54261087 15.81686061 -1.50268555 14.32006836 C-1.44511384 12.17285688 -1.38138284 10.02590479 -1.31640625 7.87890625 C-1.26141968 5.93866577 -1.26141968 5.93866577 -1.20532227 3.95922852 C-1 1 -1 1 0 0 Z " fill="#FCFCFC" transform="translate(932,446)"/>
<path d="M0 0 C0.76892578 -0.020625 1.53785156 -0.04125 2.33007812 -0.0625 C7.93820853 -0.1003608 12.04063136 1.01988588 17.1875 3.25 C17.1875 3.91 17.1875 4.57 17.1875 5.25 C16.49438721 5.08701416 15.80127441 4.92402832 15.0871582 4.75610352 C11.92832435 4.20476373 8.99896304 4.13714946 5.79296875 4.15234375 C3.98989258 4.15717773 3.98989258 4.15717773 2.15039062 4.16210938 C0.90451172 4.17048828 -0.34136719 4.17886719 -1.625 4.1875 C-2.89021484 4.19201172 -4.15542969 4.19652344 -5.45898438 4.20117188 C-8.5768711 4.21293749 -11.69466133 4.22937728 -14.8125 4.25 C-14.4825 3.26 -14.1525 2.27 -13.8125 1.25 C-9.2014532 0.10416873 -4.72164296 0.0311917 0 0 Z " fill="#EBEBEB" transform="translate(566.8125,400.75)"/>
<path d="M0 0 C0.495 0.99 0.495 0.99 1 2 C-3.28651122 2.28778292 -7.57321203 2.57250377 -11.86010742 2.85449219 C-13.31589129 2.95067301 -14.77162188 3.04766399 -16.22729492 3.14550781 C-18.32977749 3.2866817 -20.43243975 3.42485959 -22.53515625 3.5625 C-23.797229 3.64628906 -25.05930176 3.73007812 -26.35961914 3.81640625 C-29.91362924 3.9956441 -33.44217965 4.03207049 -37 4 C-36.67 3.34 -36.34 2.68 -36 2 C-24.28113779 -0.80836639 -11.95414876 -0.22453971 0 0 Z " fill="#FCFCFC" transform="translate(394,361)"/>
<path d="M0 0 C-1 2 -1 2 -2.86328125 2.6328125 C-14.86686324 5.04501558 -26.88335246 3.86108155 -39 3 C-39 2.67 -39 2.34 -39 2 C-38.30028076 1.98018066 -37.60056152 1.96036133 -36.87963867 1.93994141 C-33.64860628 1.84352448 -30.41812033 1.73432725 -27.1875 1.625 C-26.08728516 1.5940625 -24.98707031 1.563125 -23.85351562 1.53125 C-17.48145314 1.30569027 -11.46649986 0.69454025 -5.2355957 -0.68212891 C-3 -1 -3 -1 0 0 Z " fill="#EBEBEA" transform="translate(330,341)"/>
<path d="M0 0 C0.66 0 1.32 0 2 0 C2.02932237 3.66664954 2.04690637 7.3332684 2.0625 11 C2.07087891 12.02996094 2.07925781 13.05992187 2.08789062 14.12109375 C2.10613637 19.85025613 1.86475384 25.33484101 1 31 C0.34 31 -0.32 31 -1 31 C-0.67 20.77 -0.34 10.54 0 0 Z " fill="#FCFBFB" transform="translate(477,449)"/>
<path d="M0 0 C0 0.33 0 0.66 0 1 C-19.8 0.505 -19.8 0.505 -40 0 C-40 -0.33 -40 -0.66 -40 -1 C-9.23013245 -2.95364238 -9.23013245 -2.95364238 0 0 Z " fill="#FEF6D4" transform="translate(331,574)"/>
<path d="M0 0 C10.23 0.33 20.46 0.66 31 1 C30.67 1.66 30.34 2.32 30 3 C26.31251691 3.02925502 22.62506408 3.04688418 18.9375 3.0625 C17.89916016 3.07087891 16.86082031 3.07925781 15.79101562 3.08789062 C10.41276931 3.10496442 5.29666789 2.95415152 0 2 C0 1.34 0 0.68 0 0 Z " fill="#FDFDFD" transform="translate(541,564)"/>
<path d="M0 0 C0.99 0 1.98 0 3 0 C3.23576736 7.62314474 2.83717315 14.58569409 1 22 C0.01 22.33 -0.98 22.66 -2 23 C-1.34 15.41 -0.68 7.82 0 0 Z " fill="#EBEBEB" transform="translate(638,497)"/>
<path d="M0 0 C-0.33 0.66 -0.66 1.32 -1 2 C-16.76055135 6.97942057 -16.76055135 6.97942057 -23.18359375 3.98046875 C-23.78300781 3.65691406 -24.38242187 3.33335937 -25 3 C-24.0821875 2.87882813 -23.164375 2.75765625 -22.21875 2.6328125 C-14.19705381 1.57713528 -14.19705381 1.57713528 -6.3125 -0.1875 C-3 -1 -3 -1 0 0 Z " fill="#EEEEEE" transform="translate(593,561)"/>
<path d="M0 0 C0.33 0.99 0.66 1.98 1 3 C-8.57 2.67 -18.14 2.34 -28 2 C-28 1.67 -28 1.34 -28 1 C-24.64596947 0.83051801 -21.29175736 0.66492694 -17.9375 0.5 C-16.99455078 0.45230469 -16.05160156 0.40460938 -15.08007812 0.35546875 C-10.04601557 0.10990472 -5.03997893 -0.0559221 0 0 Z " fill="#D2D2D1" transform="translate(402,362)"/>
<path d="M0 0 C0.66 0 1.32 0 2 0 C2.3125 2.3125 2.3125 2.3125 2 5 C0.0625 6.875 0.0625 6.875 -3 8 C-6.05588367 7.94378809 -8.99526134 7.54334054 -12 7 C-12 6.67 -12 6.34 -12 6 C-6.06 5.505 -6.06 5.505 0 5 C0 3.35 0 1.7 0 0 Z " fill="#EFEFEF" transform="translate(637,413)"/>
<path d="M0 0 C0.33 0 0.66 0 1 0 C1.08107583 1.93681161 1.13922475 3.8745934 1.1875 5.8125 C1.23970703 7.43091797 1.23970703 7.43091797 1.29296875 9.08203125 C1 12 1 12 -0.51171875 13.88671875 C-1.00285156 14.25410156 -1.49398437 14.62148438 -2 15 C-2.21755666 9.5610835 -2.10428384 5.12919186 0 0 Z " fill="#F0F0F0" transform="translate(793,524)"/>
<path d="M0 0 C0.33 0 0.66 0 1 0 C1.33 5.94 1.66 11.88 2 18 C1.01 17.67 0.02 17.34 -1 17 C-1.12036664 11.22240116 -0.8320582 5.72040011 0 0 Z " fill="#EDEDED" transform="translate(1,470)"/>
<path d="M0 0 C-0.33 0.99 -0.66 1.98 -1 3 C-2.60379341 3.05416188 -4.20811406 3.09286638 -5.8125 3.125 C-6.70582031 3.14820313 -7.59914062 3.17140625 -8.51953125 3.1953125 C-11 3 -11 3 -14 1 C-9.23692563 0.04738513 -4.8333472 -0.08333357 0 0 Z " fill="#E9E7E2" transform="translate(226,345)"/>
<path d="M0 0 C3.15835107 1.39750048 5.32272825 3.05198234 7.75 5.5 C8.67039062 6.41265625 8.67039062 6.41265625 9.609375 7.34375 C11 9 11 9 11 11 C7.84164893 9.60249952 5.67727175 7.94801766 3.25 5.5 C2.63640625 4.8915625 2.0228125 4.283125 1.390625 3.65625 C0 2 0 2 0 0 Z " fill="#EAEAEA" transform="translate(445,383)"/>
<path d="M0 0 C-1.40844718 3.21524305 -3.10344786 5.32183868 -5.625 7.75 C-6.57246094 8.67039062 -6.57246094 8.67039062 -7.5390625 9.609375 C-8.02117187 10.06828125 -8.50328125 10.5271875 -9 11 C-9.66 10.34 -10.32 9.68 -11 9 C-9.54782324 7.49403892 -8.08807139 5.99537896 -6.625 4.5 C-5.40683594 3.24703125 -5.40683594 3.24703125 -4.1640625 1.96875 C-2 0 -2 0 0 0 Z " fill="#EBEBEB" transform="translate(315,385)"/>
<path d="M0 0 C0.66 0 1.32 0 2 0 C3.45184478 4.53701494 4.23509196 8.18061476 4 13 C3.34 13 2.68 13 2 13 C1.34 8.71 0.68 4.42 0 0 Z " fill="#FAFAF9" transform="translate(636,484)"/>
<path d="M0 0 C3.08982891 1.34340388 3.93447803 1.8960686 5.8125 4.875 C6.99119908 7.97683969 7.26070809 9.0201445 6 12 C4.28982274 9.4347341 3.09582189 7.12039035 1.875 4.3125 C1.52179687 3.50425781 1.16859375 2.69601562 0.8046875 1.86328125 C0.53914062 1.24839844 0.27359375 0.63351562 0 0 Z " fill="#F1F1F0" transform="translate(630,473)"/>
<path d="M0 0 C0.66 0 1.32 0 2 0 C1.67 2.97 1.34 5.94 1 9 C0.01 9.33 -0.98 9.66 -2 10 C-1.34 6.7 -0.68 3.4 0 0 Z " fill="#FAFAFA" transform="translate(591,506)"/>
<path d="M0 0 C0.33 0.66 0.66 1.32 1 2 C0.22265625 4.1640625 0.22265625 4.1640625 -0.9375 6.625 C-1.31777344 7.44226563 -1.69804687 8.25953125 -2.08984375 9.1015625 C-2.39019531 9.72804688 -2.69054687 10.35453125 -3 11 C-3.66 11 -4.32 11 -5 11 C-4.54917531 9.53932801 -4.08906463 8.08151968 -3.625 6.625 C-3.36976563 5.81289063 -3.11453125 5.00078125 -2.8515625 4.1640625 C-2 2 -2 2 0 0 Z " fill="#FAFAFA" transform="translate(291,414)"/>
<path d="M0 0 C0.33 0.99 0.66 1.98 1 3 C-4.94 2.01 -4.94 2.01 -11 1 C-6.46780033 -1.26609984 -4.82227075 -0.92735976 0 0 Z " fill="#ECEBEB" transform="translate(595,364)"/>
<path d="M0 0 C1.32 0.66 2.64 1.32 4 2 C0.37 3.32 -3.26 4.64 -7 6 C-6 3 -6 3 -3.1875 1.1875 C-2.135625 0.795625 -1.08375 0.40375 0 0 Z " fill="#F1F1F1" transform="translate(138,243)"/>
<path d="M0 0 C3 1 3 1 4.1875 2.875 C5 5 5 5 5 8 C4.01 7.67 3.02 7.34 2 7 C0.8125 3.4375 0.8125 3.4375 0 0 Z " fill="#EEEEED" transform="translate(588,498)"/>
<path d="M0 0 C2.64 0 5.28 0 8 0 C8 0.66 8 1.32 8 2 C3.545 2.495 3.545 2.495 -1 3 C-0.67 2.01 -0.34 1.02 0 0 Z " fill="#F4F4F1" transform="translate(207,347)"/>
<path d="M0 0 C2.97 0.33 5.94 0.66 9 1 C9 1.33 9 1.66 9 2 C4.545 2.495 4.545 2.495 0 3 C0 2.01 0 1.02 0 0 Z " fill="#F1F1F1" transform="translate(503,498)"/>
<path d="M0 0 C0 0.33 0 0.66 0 1 C-3.3 1.66 -6.6 2.32 -10 3 C-9.67 2.01 -9.34 1.02 -9 0 C-5.52176885 -1.15941038 -3.54104422 -0.70820884 0 0 Z " fill="#EEEEEE" transform="translate(360,365)"/>
<path d="M0 0 C3.6875 0.3125 3.6875 0.3125 7 1 C7 1.33 7 1.66 7 2 C3.7 2.33 0.4 2.66 -3 3 C-2.01 2.01 -1.02 1.02 0 0 Z " fill="#F0F0F0" transform="translate(569,524)"/>
</svg>
